/* XPM */
static char *_bd6529f41df42ff8b181691f902fd86iXrobbw1ZY95iz8A[] = {
/* columns rows colors chars-per-pixel */
"50 50 175 2 ",
"   c #A97700",
".  c #AC7B01",
"X  c #AE7E0A",
"o  c #AE800C",
"O  c #B48306",
"+  c #B88602",
"@  c #BF8B02",
"#  c #B4840B",
"$  c #B9880A",
"%  c #AF8110",
"&  c #B38412",
"*  c #B68813",
"=  c #B88A17",
"-  c #B3871B",
";  c #BB8E1B",
":  c #B58B25",
">  c #BC8F22",
",  c #B68D29",
"<  c #B98F2A",
"1  c #BA902C",
"2  c #BC9126",
"3  c #BA9234",
"4  c #BC973C",
"5  c #BE993F",
"6  c #C18B00",
"7  c #C18E09",
"8  c #C79103",
"9  c #CC9400",
"0  c #C79208",
"q  c #D69D00",
"w  c #D09E1C",
"e  c #DDA200",
"r  c #E2A600",
"t  c #E4A800",
"y  c #EBAD00",
"u  c #EFB100",
"i  c #F1B305",
"p  c #F8B700",
"a  c #F7B805",
"s  c #F8B801",
"d  c #F0B40C",
"f  c #F9BB0B",
"g  c #E4AC11",
"h  c #E9B117",
"j  c #F9BC12",
"k  c #F8BF1D",
"l  c #C3982F",
"z  c #C89D2D",
"x  c #C99F32",
"c  c #D4A62C",
"v  c #CAA035",
"b  c #CDA53C",
"n  c #D1A737",
"m  c #D0A73D",
"M  c #E3B128",
"N  c #F8C024",
"B  c #F9C22A",
"V  c #F9C533",
"C  c #F5C33B",
"Z  c #F9C73C",
"A  c #BB9640",
"S  c #BE9A42",
"D  c #C09C43",
"F  c #C19E4E",
"G  c #C19F51",
"H  c #C2A04E",
"J  c #D5AD45",
"K  c #DBB246",
"L  c #DCB349",
"P  c #C4A55D",
"I  c #D2AF58",
"U  c #D1AD52",
"Y  c #D5B054",
"T  c #DCB651",
"R  c #DFBA56",
"E  c #D5B159",
"W  c #DFBB59",
"Q  c #E3B843",
"!  c #EBBF47",
"~  c #E2BC57",
"^  c #E3BF5C",
"/  c #C6A761",
"(  c #CBAC65",
")  c #CAAE6D",
"_  c #CAAF71",
"`  c #CCB175",
"'  c #CDB37A",
"]  c #D1B576",
"[  c #D7BA75",
"{  c #D7B76A",
"}  c #F9CA44",
"|  c #FACC4A",
" . c #FACE55",
".. c #F9CF5A",
"X. c #F9D15F",
"o. c #E5C162",
"O. c #EAC766",
"+. c #EBC867",
"@. c #EDCB6B",
"#. c #F1CF6D",
"$. c #FAD264",
"%. c #F3D06F",
"&. c #F9D46B",
"*. c #F4D373",
"=. c #F9D773",
"-. c #F9D876",
";. c #FADA7C",
":. c #CEB682",
">. c #D2B986",
",. c #D3BD8C",
"<. c #D9C391",
"1. c #D7C49C",
"2. c #D8C69D",
"3. c #DCC89C",
"4. c #FADD89",
"5. c #FADB84",
"6. c #E2CD9D",
"7. c #E6D09A",
"8. c #FBDE90",
"9. c #FBE39D",
"0. c #FBE094",
"q. c #D9C7A2",
"w. c #DDCBA4",
"e. c #DDCFB2",
"r. c #DFD1B5",
"t. c #E0D1B0",
"y. c #E3D6BB",
"u. c #ECDBB4",
"i. c #FBE3A1",
"p. c #FCE9B4",
"a. c #F6E6BB",
"s. c #FEECBA",
"d. c #E5DBC6",
"f. c #E8DBC1",
"g. c #E7DECC",
"h. c #ECE2CD",
"j. c #FDEDC2",
"k. c #FEEFC8",
"l. c #E9E1D1",
"z. c #EBE6DD",
"x. c #EDE8DF",
"c. c #F2EBDD",
"v. c #FDF2D3",
"b. c #FFF6DF",
"n. c #EDEAE3",
"m. c #EFEEED",
"M. c #F0EEEC",
"N. c #F0EEEB",
"B. c #FFF8E4",
"V. c #F1F0EE",
"C. c #F4F1ED",
"Z. c #FEF9EB",
"A. c gray94",
"S. c #F1F1F1",
"D. c #F1F1F1",
"F. c #F1F1F2",
"G. c gray95",
"H. c #F2F2F3",
"J. c #F3F3F3",
"K. c #F2F3F3",
"L. c #F2F2F1",
"P. c #F3F3F4",
"I. c #F3F4F6",
"U. c #F4F4F4",
"Y. c gray96",
"T. c #F4F4F5",
"R. c #F6F6F6",
"E. c #F4F4F6",
"W. c #F2F2F2",
"Q. c #F9F6F1",
"!. c #FFFCF5",
"~. c #F5F6F9",
"^. c #F5F6F8",
"/. c white",
"(. c #FFFFFF",
/* pixels */
"R.L.L.T.A.J.L.L.R.A.J.J.A.J.A.J.J.A.R.J.L.T.A.T.J.A.R.A.J.T.A.T.A.J.T.A.J.J.J.J.A.J.J.A.R.A.J.T.A.R.",
"L.L.P.L.T.L.T.L.A.J.L.J.J.A.J.J.A.T.A.J.J.L.J.L.L.J.A.T.L.L.J.L.J.J.J.J.A.J.J.A.J.J.J.J.A.J.J.A.J.A.",
"L.L.L.L.L.L.L.L.J.J.L.J.J.J.A.A.A.J.J.J.L.J.L.L.L.L.L.L.L.J.J.J.J.A.J.J.J.J.J.J.J.J.J.J.J.A.A.J.J.J.",
"R.L.L.P.L.T.L.L.J.A.J.J.J.J.J.J.J.L.J.L.J.J.L.J.L.J.J.J.L.J.L.J.J.A.J.J.J.A.A.J.A.A.J.J.J.J.J.J.J.J.",
"A.J.J.A.T.L.J.J.A.T.J.A.T.A.J.J.A.T.V.J.J.L.J.L.L.T.V.T.L.A.T.A.J.J.A.J.A.J.J.A.J.J.J.J.J.J.J.J.J.A.",
"R.L.L.J.A.T.L.L.T.A.J.J.A.T.A.A.J.A.J.L.L.q.P P / P / P P ,.A.T.A.J.T.A.J.J.A.T.A.J.J.A.J.A.J.J.A.T.",
"m.T.J.L.J.L.L.T.J.J.A.J.J.A.J.J.J.J.A.m.m.) . O o O o . . 4 n.n.A.V.J.J.A.J.J.A.J.J.J.J.A.J.J.A.J.A.",
"T.A.L.J.L.T.L.L.J.A.J.J.L.J.J.A.J.J.n.G 3 U +.+.O.o.+.+.b o 3 4 l.T.J.A.J.J.A.J.J.J.J.A.J.J.J.J.J.J.",
"L.L.L.J.L.J.L.J.L.J.L.L.J.J.A.J.L.A.y.3 * L &.$.$.$.$.&.L = * o q.m.J.J.K.K.J.J.J.A.J.J.J.J.J.J.J.J.",
"A.J.T.A.J.L.L.J.A.J.L.J.J.A.J.J.T.d.1 O.*.C f f f f f f C *.O.# % w.T.J.J.A.J.A.J.J.L.J.A.J.A.J.J.A.",
"R.A.L.J.A.T.J.A.T.A.J.J.A.J.A.T.z.>.b #.X.N y e e e e u N $.%.x o / l.A.J.J.A.J.A.J.J.A.J.A.J.J.A.J.",
"A.J.T.A.T.A.J.T.L.J.J.A.T.A.T.I.1.> -.-.N s e . O . . e s N -.*.; . ` ~.A.J.J.A.J.J.J.T.A.J.J.A.J.A.",
"T.L.L.J.A.J.J.A.J.A.J.J.A.T.A.r.( T &.} j r w J J J J z r f } =.T = 3 2.V.J.J.J.L.J.J.A.T.J.J.J.J.J.",
"A.J.T.A.J.J.L.J.A.J.J.A.J.A.T.) z ;.&.j p 8 v ;.-.;.-.l 8 p j &.;.x . 5 A.J.J.A.J.J.J.J.A.J.A.J.J.J.",
"L.L.J.L.J.J.L.T.J.J.J.J.J.J.T._ z $.B a 9 n } C -.-.Z } n 9 a B $.v . S A.J.J.A.J.J.L.J.J.J.L.J.J.J.",
"R.A.L.J.A.J.L.A.J.A.J.L.A.J.n.` J X.a u @ U } k &.=.N | K 6 u a X.b . 5 z.A.J.J.A.J.J.A.J.A.J.J.A.J.",
"A.J.J.A.J.L.J.J.L.J.J.A.J.m.P ,.u.X.u @ L C a a k &.&.V a e @ i X.*.m . S n.T.A.T.A.A.T.A.T.J.L.J.A.",
"R.A.J.T.A.J.J.A.T.A.J.J.V.V.5 <.b.;.u $ o.Z s p f  .-.| j r + d $.;.J . , x.A.T.A.J.T.A.T.A.J.J.A.R.",
"A.J.J.A.J.L.J.J.L.J.V.L.J.m.S <./.k.d $ ~ Z p p p f $.;.| r + u X.;.J . , z.K.A.J.L.A.T.A.J.J.A.J.A.",
"J.L.A.J.J.J.J.A.L.L.L.J.V.V.5 <./.k.d + o. .N p a s V $.$.M + i X.;.J . , z.A.T.J.L.J.L.J.J.A.J.J.J.",
"J.J.A.J.L.J.J.J.J.J.J.L.L.V.S <./.k.d + ^ ;.| p s a p | ;.o.+ u X.;.J . , x.J.J.A.J.J.J.J.L.L.J.A.J.",
"A.J.J.A.J.L.L.J.A.T.L.L.J.m.S <./.k.d $ 7.9.&.Z s p p k  .o.+ u $.;.J . , z.T.A.T.A.J.J.A.J.J.L.J.A.",
"R.A.J.J.A.T.J.A.T.A.J.J.V.V.S <./.k.d $ d.s.;.X.f a s s B o.+ d X.;.J . , x.K.T.A.J.J.A.J.L.J.J.A.R.",
"A.J.J.J.J.A.J.J.L.J.J.A.J.m.S <./.k.d $ f.!.s.=.X.f a s f g $ u X.;.J   , z.T.A.T.J.A.T.A.J.J.A.J.A.",
"T.J.A.J.A.J.J.A.P.L.L.T.L.V.S <./.k.d $ f./.v.4.&.N a p a t + u X.;.J . , x.A.T.A.J.J.A.J.J.J.J.A.J.",
"J.A.J.J.J.J.J.J.L.L.L.L.L.V.D <./.k.d $ f./.!.v.;.&.k p a t + a $.;.J . , x.J.J.J.J.J.A.J.J.A.J.J.J.",
"A.J.J.J.J.J.J.J.L.L.L.L.L.m.S [ Z.k.d $ f././.Z.i.;.} f s t + u X.;.J . , z.K.K.J.J.J.J.A.J.J.A.J.A.",
"R.A.J.J.A.J.J.A.R.L.J.T.L.L.S m p.k.d $ f./././.Z.5.-.V s r + d X.;.J . , x.A.J.A.J.J.J.J.A.J.J.A.R.",
"A.J.J.A.J.L.J.J.L.L.L.L.U.m.D m 8.4.i $ f./././.!.s.4...B t + i X.;.J . , z.T.A.J.J.A.J.A.J.J.A.J.A.",
"J.A.J.J.A.T.J.J.R.L.P.L.L.C.S J ;.X.d $ f./././././.9.-.| t $ u X.;.J . , x.J.J.A.J.J.J.J.A.J.J.A.T.",
"J.J.J.A.J.J.A.J.L.L.L.L.U.m.S J ;.X.u $ y./././././.b.9.&.Q + i X.;.J . , z.J.A.J.J.J.J.A.J.J.A.J.J.",
"J.A.J.A.J.A.J.J.L.L.L.L.L.N.S J ;.X.d # f././././././.p.;.o.$ u $.;.J   , z.J.J.A.J.A.J.J.A.J.J.A.J.",
"J.J.J.J.J.J.J.J.J.A.J.J.A.V.5 J ;.X.i $ f././././././.!.a.^ $ i ..;.J . : z.L.T.L.L.L.L.T.L.L.L.A.R.",
"A.J.J.A.J.J.A.J.J.J.A.A.J.m.` U @.X.i 0 3.C././././././.j.K 6 a $.@.x & P n.R.A.J.L.L.T.A.L.L.L.J.A.",
"R.A.J.J.A.J.J.A.J.A.J.J.A.J.m.` v X.p i 7 w././././././.3.6 i a ..b   D m.V.L.T.L.T.L.A.T.L.L.T.A.R.",
"A.J.J.A.T.A.J.J.J.J.J.J.J.L.J.) l &.V f q I f././././.y.>.{ ..Z &.x   S m.P.L.A.L.L.L.R.L.L.L.L.J.A.",
"J.J.A.J.J.A.J.A.A.J.L.J.J.J.J.` x ;.&.j p 8 ( /./././.( ) /.Z.4.;.x   S L.P.P.T.L.J.J.L.L.L.L.L.J.J.",
"J.J.J.J.A.J.J.J.J.A.J.J.A.J.J.d.] J =. .j y c ) ) ) _ ,.h./.!.k.E & S y.L.L.L.L.A.L.L.L.T.L.L.T.A.J.",
"A.J.J.L.J.J.J.J.A.T.J.A.T.A.J.T.1.2 %.-.B s q . . X X 6./././.C.4 . ' ^.L.P.L.A.T.J.L.T.A.T.L.L.J.A.",
"T.A.J.J.A.T.V.A.T.A.J.J.A.T.A.J.n.1.l %.&.B i y h u.h.C././.C.H X ` x.A.L.L.L.R.A.J.J.A.T.A.L.T.A.R.",
"A.J.J.A.J.A.J.J.L.J.J.J.J.A.J.J.T.g.S o.@.C k j V v././.Q.c.y.- : t.T.T.A.J.J.A.T.L.A.T.A.J.J.A.T.A.",
"J.A.J.J.J.J.J.A.J.J.J.A.A.J.J.J.L.A.l.< X L =.=.-.4.B./.w.- & X e.A.T.A.J.J.A.J.L.J.J.A.J.J.J.J.V.J.",
"J.J.J.J.J.J.L.J.L.J.J.J.A.J.A.J.L.T.n.) F I ~ R ~ R 6.y.) - H P l.J.A.J.J.L.J.J.L.L.L.J.L.J.L.J.J.J.",
"A.J.J.A.J.J.J.J.A.J.A.J.J.A.J.J.L.L.A.L.L.) . . . . . . . 5 m.A.A.J.J.J.L.L.J.L.J.J.L.T.A.J.J.A.J.A.",
"R.A.J.J.L.J.J.L.J.J.J.J.A.J.J.J.L.L.T.L.P.e.:.:.:.:.:.:.:.q.m.T.J.A.J.A.J.J.A.J.A.J.J.L.T.L.L.J.A.R.",
"A.J.J.A.T.A.J.J.A.J.J.A.T.A.J.J.L.T.A.J.P.P.I.P.T.^.P.^.T.J.T.A.J.J.A.R.A.L.T.A.T.J.L.J.A.T.J.L.J.A.",
"R.A.J.J.J.J.J.J.J.J.J.J.J.J.A.J.T.L.T.L.L.T.A.P.L.L.T.L.A.J.J.J.A.J.T.A.J.L.A.J.A.J.J.A.T.A.J.J.A.T.",
"A.J.J.A.J.A.A.J.A.J.A.J.J.A.J.J.L.L.L.P.P.L.P.P.L.L.L.L.J.J.J.A.J.J.L.J.J.J.J.J.J.J.L.J.J.J.J.J.J.J.",
"J.J.A.J.J.A.J.J.J.A.J.A.J.J.J.A.J.J.J.A.J.J.A.J.J.A.J.J.J.J.J.J.J.J.J.J.J.J.J.A.J.J.A.J.J.J.J.J.A.J.",
"R.A.J.J.A.J.J.A.J.A.J.J.A.J.A.J.J.A.J.J.J.J.A.J.J.A.J.A.A.J.A.J.A.A.T.A.J.A.J.J.A.J.J.A.J.A.J.J.A.J."
};
