/* XPM */
static char *_ce8f9e4bf884a4bfef14cc8d03c637csZbELFjtf5OTdbhq[] = {
/* columns rows colors chars-per-pixel */
"50 50 246 2 ",
"   c #080602",
".  c #1A1609",
"X  c #1A1A16",
"o  c #1D0A01",
"O  c #2C0501",
"+  c #2A0600",
"@  c #360905",
"#  c #25190A",
"$  c #381707",
"%  c #241A16",
"&  c #3A1712",
"*  c #3A0D14",
"=  c #1B2519",
"-  c #27240A",
";  c #3B2507",
":  c #25231C",
">  c #2B2517",
",  c #352616",
"<  c #37361A",
"1  c #363407",
"2  c #1A1C22",
"3  c #1C2428",
"4  c #1D2734",
"5  c #272929",
"6  c #322E2A",
"7  c #362B25",
"8  c #33312C",
"9  c #393527",
"0  c #262C36",
"q  c #27363A",
"w  c #343334",
"e  c #3A3432",
"r  c #3C3B35",
"t  c #343B3C",
"y  c #38393B",
"u  c #2E302C",
"i  c #43170B",
"p  c #481917",
"a  c #561819",
"s  c #4B120E",
"d  c #462805",
"f  c #4B3B0D",
"g  c #482717",
"h  c #552519",
"j  c #473417",
"k  c #553318",
"l  c #54230B",
"z  c #65251D",
"x  c #60341B",
"c  c #5B1A24",
"v  c #492D28",
"b  c #592726",
"n  c #483528",
"m  c #593726",
"M  c #5A2E30",
"N  c #423C39",
"B  c #433A34",
"V  c #543A35",
"C  c #652928",
"Z  c #77352B",
"A  c #763734",
"S  c #6F312A",
"D  c #2F413A",
"F  c #4D4315",
"G  c #5A4A28",
"H  c #474537",
"J  c #584437",
"K  c #504D2C",
"L  c #6C4E2F",
"P  c #7B653A",
"I  c #6A6935",
"U  c #61401F",
"Y  c #2A3A45",
"T  c #333B46",
"R  c #433D41",
"E  c #2C4648",
"W  c #334344",
"Q  c #35474B",
"!  c #2D4453",
"~  c #354554",
"^  c #374A5A",
"/  c #3A5259",
"(  c #2F505F",
")  c #344D63",
"_  c #3B4D63",
"`  c #364D6A",
"'  c #345264",
"]  c #3A5465",
"[  c #3C536B",
"{  c #38566B",
"}  c #3B5A73",
"|  c #3A5879",
" . c #2C4F65",
".. c #3B617A",
"X. c #584745",
"o. c #52524C",
"O. c #565948",
"+. c #575452",
"@. c #484D4D",
"#. c #6A5341",
"$. c #707853",
"%. c #43596A",
"&. c #425C7A",
"*. c #455C76",
"=. c #474E68",
"-. c #47637A",
";. c #496473",
":. c #676C65",
">. c #5A6156",
",. c #823D38",
"<. c #835137",
"1. c #897953",
"2. c #89714B",
"3. c #7B8859",
"4. c #7E945C",
"5. c #798A69",
"6. c #728967",
"7. c #858C5A",
"8. c #87955A",
"9. c #959A5D",
"0. c #8F8D51",
"q. c #8AA95A",
"w. c #96AD59",
"e. c #8DB359",
"r. c #93B45C",
"t. c #9AB75B",
"y. c #A3BA5D",
"u. c #A7B95B",
"i. c #B3BE5E",
"p. c #829361",
"a. c #959C64",
"s. c #8A936F",
"d. c #8CAC62",
"f. c #98A969",
"g. c #8DB466",
"h. c #93B363",
"j. c #9BB563",
"k. c #9DBB64",
"l. c #9CBC6A",
"z. c #97B869",
"x. c #9EBC75",
"c. c #91AB77",
"v. c #A2A869",
"b. c #A3BC63",
"n. c #ABBD63",
"m. c #A4BD6B",
"M. c #A7B967",
"N. c #B5BC69",
"B. c #A8B777",
"V. c #B5B278",
"C. c #C5BD77",
"Z. c #A9C35D",
"A. c #B5C65D",
"S. c #9CC26A",
"D. c #94C174",
"F. c #A4C364",
"G. c #ACC364",
"H. c #A3C36C",
"J. c #ACC46B",
"K. c #ADC96A",
"L. c #B3C464",
"P. c #B5CA64",
"I. c #BCCC64",
"U. c #B3C46B",
"Y. c #B4CB6D",
"T. c #BCCC6A",
"R. c #BBC666",
"E. c #BDD164",
"W. c #BDD26C",
"Q. c #B6D069",
"!. c #AAC671",
"~. c #A9C675",
"^. c #B4CB73",
"/. c #BCCC73",
"(. c #B7C778",
"). c #BBD275",
"_. c #BCD577",
"`. c #C3D15E",
"'. c #C2CD6B",
"]. c #C4C967",
"[. c #C3D36C",
"{. c #C7D569",
"}. c #D2DA6D",
"|. c #C5CC79",
" X c #C3D374",
".X c #CBD473",
"XX c #C4D47B",
"oX c #CBD979",
"OX c #D4DC74",
"+X c #D6DB79",
"@X c #D2C67C",
"#X c #DAE377",
"$X c #CFE175",
"%X c #E2EB7B",
"&X c #E2DD79",
"*X c #3D5C83",
"=X c #3C6182",
"-X c #425D83",
";X c #456384",
":X c #476786",
">X c #9B9C9B",
",X c #888785",
"<X c #A29E9B",
"1X c #A2A29F",
"2X c #ADB989",
"3X c #9C9BA2",
"4X c #A5A4A3",
"5X c #A8A9A8",
"6X c #BAB9B8",
"7X c #AFAFAE",
"8X c #C0BB83",
"9X c #B8CD86",
"0X c #B9D487",
"qX c #B2C98B",
"wX c #CAD786",
"eX c #D3DA86",
"rX c #D2D190",
"tX c #DBE482",
"yX c #D8E389",
"uX c #DAE493",
"iX c #CDE28A",
"pX c #E6EA86",
"aX c #E0E494",
"sX c #EEF48F",
"dX c #C5C2BE",
"fX c #F0F5A4",
"gX c #E2D797",
"hX c #C4C4C3",
"jX c #CAC5C5",
"kX c #D6D7D4",
"lX c #D4D1CB",
"zX c #E2DAD0",
"xX c #F2EFEC",
"cX c #F4F3EE",
"vX c #FAF5EF",
"bX c #F2EFF0",
"nX c #F5F6F5",
"mX c #F9F6F5",
"MX c #F6F9F5",
"NX c #FAF9F5",
"BX c #F6F6FA",
"VX c #F9F7FA",
"CX c #FDFDFD",
"ZX c #F5F9FB",
"AX c #E8E9E9",
"SX c #E0E2DD",
/* pixels */
"+X.XQ.K.F.Q.oX#XpXpXeXm.M.j.r.S.K.W.}.#X%X%X%X{.S.^..X%XpXsX&X].Z.G.u.L.i.].'.P.].E.A.{.}.&X+X].OX.X",
"R.T.W.).Q.).oXOXpX+X/.M.m.!.H.K.G.P.{.}.{.{.#XQ.w.0.C.pXsXpX}.].L.P.P.I.].].I.[.E.E.A.`.{.OX&X}.+XOX",
"y.K.W. X{.}.#X#X+X.XU.m.(.XX XeXY.b.F.K.G.u.K.v.l l L fXsX%X&X.X[..X+X.X].T.I.Q.Y.Q.R.A.A.{.#X#X#X&X",
"t.y.G.T.{.{.}.}.OX.X).^.XXeXoX.Xn.t.k.j.wXV.8.F h A d I @XfXfXtX.X`.C.].R.P.P.L.P.T.T.L.A.{.$X#X#X%X",
"Z.e.t.G.I.R.R.I..XoXXXXXeXyXtX.XY.r.l.f.0.L ; + Z ,.h O x <.].pXU.n.].].G.Z.L.T.P.T.[.[.E.[.[.OX}.}.",
"Z.t.w.t.G.G.L.Y.Y.Y.Y. XXX#XpXtX^.B.k.G g C v * C C a s Z z d rXrX].|.M.Z.K.E.I.P.I.E.{.[.E.].'.].`.",
"n.y.t.S.k.b.J.U.F.b.m.n.G.Y.+XeXV.$.F $ S Z p + a C s s C ,.p ; L 2.0.N.U.I.[.[.I.E.E.E.T.R.L.L.L.R.",
"N.U.!.S.r.j.k.k.b.b.M.n.m./.aXgX; f l @ Z z s c b a C s a Z p @ x h ; 8XaXuXtX X].E.A.E.P.L.L.n.G.n.",
"_._.^.^.H.k.e.e.t.Z./.XX(.V.1.x a L b @ p b M p i i i b C a @ s Z ,.h g 1.V.eX#X{.{.E.I.L.Z.U.u.t.t.",
"_.).U./.^.F.e.t.t.K.uXC.F k g O z Z c * v p & v J J M & i b p * z Z i + g l F V.@X+X[.A.Z.L.R.G.b.k.",
"Z.G.W.[. X[.Z.(.rXuXrXL l S m + a c p i $ h X.V X X : N n $ & h C a i @ z A # $ L L 0.'.P.[.E.Z.t.k.",
"W.Q.E.E.[.T./.|.1.#.; @ ,.A p + g s p v J n # % w w 5 X > H V & s b m s a Z & O h l f rXXXW.Z.Z.t.H.",
"A.Q.R.'./.wXV.f l x i @ h h p * p v J n X 3 u D 7 e u t 0 X 5 H v & & M C c @ O C A $ I V.wX^.G.G.^.",
"G.u.n.'.C.1.< $ A A g + b p * M X.B X 2 q Y 5   V 2.% X q ^ 0 X 7 R v * c C C s a C + o d G t.J.b.J.",
"z.j.(.I l a + & C C $ O $ v X.B 2 2 q ( { ! 5 J g J m X.0 _ ~ E 4 X e V b O p M b b O * a x k (.M.k.",
"f.qXs.$ A Z O & M * $ v J n % 2 Y ^ ) )  .T w n G 2.g B 0 _ ) ` ) T 5 % 7 J g @ p M M O a L l 0.N.b.",
"f.B.P m A c @ v & b V B X 3 T ) ) ) ) ) ` ~ 5 # L 2., 8 Y  .` ) ( ( ^ T 4 2 r J , @ h b a b h <.eXA.",
"m.B.g g p p & g V 7 : 2 q ( ` =._ [ ` _ ^ ^ 5 o x 2., X ! ] ' ^ ] ) _ =.^ Y 3 X e J d s b m v $ C.}.",
"0Xj.- ; $ ; F K H # T ~ ^ ( ` T Y T T Y ~ W 5 # x 2.$ . t ~ T Q T T T T =.^ ^ Y 3 X v k g + k ; ].}.",
"m.j.I K F F O.qXc.D / [ [ [ T 4 T e @.T t w X., G L , V y t y e y y N T 0 ) ~ ) ) 0 $.I 1 G G 2.pX#X",
"~.S.z.V.v.9.9XrX6.D } ..*.=.Y 0 B B e r y y r 7 d m & 7 y e B 9 r D B r 2 ! } } | Y c.rX0.M.wX|.#X.X",
"~.r.z.d.m.m.t.~.$.! -.=X-X*.4 w n % 7 % : 5 5 X v V # 7 5 5 > , : : , B q ! &.:X-XQ 5.U.^.L.u.Z.R.I.",
"z.g.g.d.w.J.J.wX4./ ..*X-X-.q 8 7 , lXSXSXkXAX5X> , +.AXkXkXzXzXSX7X. e 5 ) :X-X-X^ p.|.u.y.K.G.Z.L.",
"z.d.8.d.b.^.XXeX5.Q -.*X-X;.t 6 6 e vXNXMXZXZXlX# % :.CXCXCXCXNXZXlX. H 0 ] :X;X:XQ p.(.n.y.b.U.R.A.",
"h.e.q.h.B.XX+XrXs.W -.;X*X-.t u 6 6 cXNXMXbXBXnXlXkXAXBXBXBXbXbXCXjX# r 0 { :X=X:XE 7.(.n.u.n.'.'.T.",
"k.k.r.e.b.(.oXfXs.Q -.-.;X-.q w 8 u xXMXcXnXBXVXCXNXVXVXBXBXZXBXCXjX. N 0 [ :X=X:XE p./.L.R.]..X.X'.",
"K.G.r.w.w.n.).fXc.Q ....;X-.Y w 8 6 cXMXMXMXVXmXvXvXmXVXBXZXnXbXVXjX# N q ] :X=X:XE 4./.R.I.R.'.'.'.",
"Q.G.t.u.b.b.F.iXc.E ....=X-.0 w u 6 cXMXcXvXmXmXvXvXNXVXMXNXZXZXVXjX% N 0 ' :X..=XE 4.^.U.T.T. X X X",
"E.E.L.P./.G.t._.5.! ;...-X&.0 w 6 6 xXmXnXnXmXVXNXvXmXcXcXcXMXnXCXjX# N 0 _ ;X*X=X! 4.~.k.G.^.^.J.J.",
"Q.W.[.[.T.Y.F.9X5.Q ;...} *.0 w 6 6 bXNXmXBXVXVXvXvXNXNXNXNXBXnXCXjX. N 5 _ -X*X:X( 6.m.j.H.H.H.H.m.",
"Z.E.[.].L.G.Z.0X5.E ;.{ } %.0 e 6 6 bXCXBXBXZXZXZXMXMXmXcXcXMXnXCXhX# H 5 ^ &.| ;XE 7./.K.K.!.~.~.!.",
"Z.Z.T.[.U.b.Z.0X5.W %.{ } %.0 e 6 6 bXVXBXBXZXZXZXMXMXMXvXnXBXBXCXhX. D 3 ^ &.| | E f.iX^.Z.k.H.H.J.",
"t.F.F.S.S.h.t.B.:.Q ..] } { 0 t w 6 bXVXVXBXBXCXnXBXBXnXmXmXBXnXCXjX. B u ~ &.*X&.Y x.wX!.K.F.K.K.S.",
"r.e.e.e.g.g.r.f.$.Q { { } { 0 u 6 6 xXVXVXmXnXmXBXBXMXnXVXVXmXnXCXhXX B 5 ~ *.` [ Y f.wX!.).)._.F.F.",
"~.h.e.g.g.g.e.z.:.D (  .} ' 5 8 8 8 xXNXmXmXnXnXMXVXmXnXnXmXmXnXCXjX% B u ~ { ` *.D q.Q.n.^._._.).Q.",
"^.S.S.g.g.g.e.~.6.E ' { ] ( 5 9 7 6 xXNXmXNXNXMXnXnXNXnXnXmXmXnXCXjXX B 0 E { { [ q q.E.y.y.J._.oX_.",
"_.~.H.x.D.l.g.0X6.E { ` ` _ 5 6 6 6 xXmXnXmXBXnXVXBXBXBXVXVXBXnXCXjX# r 5 T ` ` { D q.W.n.y.M._._.^.",
"_.K.k.g.h.g.e.qX6.q ' ` ` ) 5 e 6 6 vXmXnXVXnXBXBXVXVXBXBXBXBXBXCXdX. N 0 T ` ` } q h.$X X|.N.N.m.J.",
"_.K.~.k.h.h.z.x.O.E ^ ) [ ~ 3 8 6 6 cXNXcXmXnXnXMXBXnXBXBXBXBXnXCXjX. N 0 Y ` _ ` 5 8.yX+X.Xn.y.w.H.",
"_.!.^.~.S.H.!.h.= E %.~ _ Q 5 : > 5 xXNXcXcXnXnXnXnXnXnXnXBXnXnXCXjXX e 5 w =.~ =.t 1 M.eXL.n.b.r.m.",
"~.S.S.!.k.l.0Xp.< D D t q 5 = . X 5 NXNXCXCXCXCXCXCXCXCXCXCXCXCXZXlX  % X 5 u r D 9 K 0.+XI.U.G.b.J.",
"D.S.S.H.k.j.(.8.- H 9 = > 9 . : . X 6X6X6X6X6X6XdX6X6XdXhXhXhXdXlX>X. X . > 9 < K K j 9.yXR./.G.K.Y.",
"D.g.g.S.H.H.9X3.. 9 # - # > .       o.@.o.o.+.o.+.o.+.o.+.o.o.o.+.t       > - # > 9 . $.wXi.J.M.F.F.",
"D.g.z.S.z.~.0X$.- K , - - # : +.o.>.1X7X5X4X4X5X3X4X4X4X1X4X4X5X7X3X:.:.o.. > , j K - 7.eXi.n.k.S.H.",
"D.S.S.S.j.j.~.8.. - # - - o +.6X4X3X>X>X>X>X3X>X3X1X>X>X<X1X<X1X3X3X5X7X,XX . o - - . 2.|.u.A.k.j.z.",
"S.H.H.S.!.b.x.B.B.B.B.f.2X6.9 O.o.O.O.+.O.o.O.O.O.O.K O.O.J K O.o.+.@.O.H F p.0.7.7.3.B.'.].P.t.r.h.",
" XU.U.Y._.^.k.!._.(.(.m.~.x.4.6.3.4.3.7.3.4.3.7.7.8.f.a.9.w.a.v.v.q.8.4.0.b.|.oXwXwXeXL.A.`.P.J.K.!.",
"#X.XeXyXXXoXK.K.Y.U.b.t.h.l.qXqX9XwXwXwXU.(.wXeXwXiXuXuXyXfXfXfXeX_.Q.Q.).].{.`.T.U.A.A.`.{. X_.iX_.",
"pXtXpX+XoX X_./.|.Y.).F.e.d.h.m./.+XpXtX+X.XoX|.U./. XoXyXiX Xn.n.y.M.y.n.P.].E.P.P.A.I.#X}.#XtXiXY.",
"%XOX+X+X.X|.XXwXXX XeX!.h.d.h.M. X#XpXsXsXpXtXW.u.G.W.oXoXI.Y. XY.t.t.b.b.A.E.E.A.A.A.E.#XOX#XtX Xu."
};
