/* XPM */
static char *cf1e2daa3df947aaf9376d9738ded9611LgzLBVEnqef2sTk[] = {
/* columns rows colors chars-per-pixel */
"50 50 178 2 ",
"   c None",
".  c #0E0D0C",
"X  c #130B0A",
"o  c #1D0D0D",
"O  c #14100B",
"+  c #1B150E",
"@  c #1E1B0F",
"#  c #0E1114",
"$  c #161412",
"%  c #1E1A14",
"&  c #1B1E1E",
"*  c #240D0D",
"=  c #2B0E0E",
"-  c #310F0F",
";  c #251C0E",
":  c #271A0F",
">  c #2C1212",
",  c #241D14",
"<  c #2A1E10",
"1  c #201F1E",
"2  c #261111",
"3  c #341313",
"4  c #3C1615",
"5  c #3D1A13",
"6  c #3D1919",
"7  c #33210F",
"8  c #2D2112",
"9  c #2E2A16",
"0  c #23211D",
"q  c #2B241A",
"w  c #322414",
"e  c #372816",
"r  c #31261A",
"t  c #33291C",
"y  c #3C2C1A",
"u  c #3E2214",
"i  c #36321B",
"p  c #3C361D",
"a  c #151B22",
"s  c #1D2125",
"d  c #1C242C",
"f  c #1F282F",
"g  c #16232F",
"h  c #192633",
"j  c #1C2834",
"k  c #1D2D3C",
"l  c #212221",
"z  c #2C2720",
"x  c #2F2A24",
"c  c #2D2C29",
"v  c #222929",
"b  c #322C25",
"n  c #392E22",
"m  c #322F29",
"M  c #3C3125",
"N  c #3A342D",
"B  c #383527",
"V  c #222C35",
"C  c #232F3B",
"Z  c #2D2F31",
"A  c #24313C",
"S  c #293437",
"D  c #373532",
"F  c #3E3B37",
"G  c #313C3D",
"H  c #431615",
"J  c #491716",
"K  c #451718",
"L  c #4E1718",
"P  c #451A19",
"I  c #4C1919",
"U  c #401914",
"Y  c #501717",
"T  c #521718",
"R  c #541C1C",
"E  c #5B1D1D",
"W  c #631E1E",
"Q  c #681F1F",
"!  c #412616",
"~  c #432B16",
"^  c #422F19",
"/  c #4A2D18",
"(  c #482B17",
")  c #44311B",
"_  c #4C331A",
"`  c #51371C",
"'  c #543A1D",
"]  c #5A3D1E",
"[  c #60201F",
"{  c #68201F",
"}  c #5F2121",
"|  c #413527",
" . c #453E22",
".. c #413528",
"X. c #423A2F",
"o. c #433B30",
"O. c #632121",
"+. c #6E2625",
"@. c #6B2222",
"#. c #752625",
"$. c #722524",
"%. c #792626",
"&. c #7D2625",
"*. c #7B2827",
"=. c #792928",
"-. c #7E2928",
";. c #37413F",
":. c #5F401E",
">. c #4C4525",
",. c #5E4121",
"<. c #514B2A",
"1. c #644522",
"2. c #674825",
"3. c #724E28",
"4. c #7F562A",
"5. c #203142",
"6. c #243443",
"7. c #2B3A44",
"8. c #233648",
"9. c #24384B",
"0. c #253A4D",
"q. c #2B3C4A",
"w. c #293743",
"e. c #273C51",
"r. c #293E52",
"t. c #314045",
"y. c #2B4156",
"u. c #2D455C",
"i. c #2F485F",
"p. c #2F4961",
"a. c #324D66",
"s. c #334E68",
"d. c #35526D",
"f. c #365572",
"g. c #395673",
"h. c #3A5976",
"j. c #3C5D7C",
"k. c #365879",
"l. c #3F607F",
"z. c gray27",
"x. c #4D4C4B",
"c. c #514F4E",
"v. c #52514F",
"b. c #5B554E",
"n. c #545453",
"m. c #5D5C5C",
"M. c #60605F",
"N. c #636363",
"B. c #686767",
"V. c #6B6B6B",
"C. c #6F6B67",
"Z. c #767676",
"A. c #802726",
"S. c #842827",
"D. c #862A29",
"F. c #832A29",
"G. c #895E2F",
"H. c #8E6130",
"J. c #3C5F81",
"K. c #3D6285",
"L. c #3F658A",
"P. c #406283",
"I. c gray56",
"U. c #959595",
"Y. c #9C9C9C",
"T. c #A3A3A3",
"R. c #A7A8A8",
"E. c #B7B7B7",
"W. c #BCBCBC",
"Q. c #C1C1C1",
"!. c #CDCDCC",
"~. c #D3D3D3",
"^. c gray86",
"/. c #E3E3E4",
"(. c #EEEEEE",
"). c gray97",
"_. c #F7F8F8",
"`. c #FAFAFA",
/* pixels */
"                                                                                                    ",
"                                                                                                    ",
"                                                P } >                                               ",
"                                              * +.D.P X                                             ",
"                                          6 K 4 -.D.[ H R 4                                         ",
"                                      o } &.W 3 @.+.R 4 %.-.P                                       ",
"                                    > 3 -.A.T * R O.4 - $.D.I > 6 3                                 ",
"                                6 $.W 3 #.@.H I [ W E 4 T #.P H #.=.P                               ",
"                              o R D.@.- I O.O.T 6 5 K [ [ R = J &.D.E o                             ",
"                        4 W E - O.A.W = R T 5 _ :.' _ 5 J W H U @.=.I 3 } @.>                       ",
"                      o +.S.W = P E L H 5 _ ] ) 1 a q ` _ 5 Y E } } H - @.D.3 * 6 6                 ",
"                  6 > 3 -.A.E = I L 5 _ ,.) s h 5.8.k d t ` _ 5 Y { @.3 E #.4 = @.=.2               ",
"              3 #.%.J 3 W R I 4 6 / ] ) 1 h 5.5.Z D V 8.k s t ` / 5 I [ E E = = @.F.* X             ",
"            o H D.A.J = E Y 6 / ] ) 0 h 9.e.d , ] 4.t 1 5.r.k s y ` / 4 T W O.4 T } * = 6 5         ",
"      > E E - 4 $.{ H * 5 ( ] ) l h 9.u.a.y.c :.` 2._ ,.A a.a.y.k s y ' ( 5 T W W O.3 * E =.6       ",
"      E D.@.= 3 R H 4 ( ] ^ l h 9.u.a.a.a.u.c _ 1.G._ ] k p.a.a.p.r.k l y ' ( 4 T Q } = R F.}       ",
"    2 #.&.T - K H ( ] ^ l j 0.u.a.a.a.a.a.u.v 7 2.H.~ ^ 6.a.a.a.a.a.p.e.k 0 ) ' ~ 4 E E I [ $.>     ",
"    3 [ R K 6 ( ' ^ l V 0.u.a.s.a.s.s.s.a.a.d + 1.H.e , r.s.a.s.a.a.s.s.i.e.j l ) ' ! U E [ E >     ",
"    3 R 6 ( ] _ % h 0.u.a.a.s.u.y.y.y.y.y.y.5.& 1.G.q g 0.y.y.y.y.y.u.y.p.a.i.0.h 0 / ` u U +.6     ",
"      > 8 / <     u.a.d.g.s.r.m o.o.X.X.X.X.X.b ` 3.e N o.X.o.X.X.X.X.M A p.s.a.i.5.. w ^ 2 6       ",
"                  a.h.j.j.d.C t ....| M | | M b ~ ] 8 n | M | M M M | | z y.k.k.f.y.                ",
"                  f.j.j.j.g.A | | q N N N N N z y ] q N N N N N N N b | c u.J.K.K.a.                ",
"                  g.l.j.j.P.6.n M D Q.~.~.~.~.T.y ! b.~.~.~.~.~.^.T.q | b s.L.K.K.a.                ",
"                  d.l.l.P.P.7.| n F /.`.`.`.`.!.M y C._._.`.`.`.`.Q.z | c f.L.K.K.a.                ",
"                  g.l.l.l.P.q.n n F /._.).)._.(.!.!.^.).).).).).`.Q.z ..N k.L.L.L.a.                ",
"                  d.l.l.P.P.q.n n F /._.).).)._.`.`.`.).).).).).`.Q.z ..b k.L.K.K.a.                ",
"                  g.l.j.l.P.7.n n o./._.).).).).).).).).).).).).`.Q.z | m f.L.K.K.p.                ",
"                  d.j.j.l.l.G n n F /._.).).).).).).).).).).).).`.Q.z | m f.K.K.L.p.                ",
"                  d.j.j.j.j.A n n F /._.).).).).).).).).).).).).`.Q.z | c d.K.K.K.p.                ",
"                  s.j.j.j.j.A | n F /._.).).).).).).).).).).).).`.Q.z | b s.J.j.J.p.                ",
"                  s.g.j.j.g.A n n F /._.).).).).).).).).).).).).`.Q.z | b s.K.j.j.p.                ",
"                  s.g.g.g.g.6.n n F /._.).).).).).).).).).).).).`.Q.z | c p.j.k.k.u.                ",
"                  a.g.g.g.d.A M n o./._._._.).).).).).).).).).)._.Q.z ..b p.k.k.h.u.                ",
"                  a.g.g.g.d.A n m F /._._._.).).).).).).).).).).`.Q.z ..b u.k.f.k.r.                ",
"                  u.f.d.g.a.V M n o./._._.).).).).).).).).).).).`.Q.z ..m p.f.f.g.u.                ",
"                  u.d.d.d.a.V n m o./._._.).).).).).).).).).).).`.Q.z ..m r.d.d.s.r.                ",
"                  u.s.d.a.a.v M n F /._.).).).).).).).).).).).).`.Q.z ..b r.s.s.d.r.                ",
"                  y.a.s.a.a.j M n F /._.).).)._.).).).).).).).).`.Q.z ..b r.s.a.s.r.                ",
"                $ e.a.a.a.a.d M n o./._.).)._._.).).).).).).).).`.Q.z ..b e.s.a.s.9.                ",
"                0 y.s.a.a.u.d q q D /._.).)._._.).).).).).).).).`.Q.q b z 0.a.a.s.q.t               ",
"                B G t.G A S & % % D /.`.`.`.`.`.`.`.`.`.`.`.`.`.`.Q.% , , v S G ;.F <.              ",
"              n.i >.p 9 9 9 @ + O z R.E.E.W.E.E.W.W.W.W.W.W.Q.W.Q.U.$ + + 9 p p >.<.>.              ",
"              V.w ) 8 < < < O O . $ n.N.N.N.N.N.N.N.N.N.N.N.N.N.B.x.. O O ; < ; e p w M.            ",
"              V.e _ w < < < x v.n.M.U.Y.Y.Y.Y.Y.Y.Y.Y.Y.Y.Y.Y.Y.Y.I.B.N.x., 8 8 y _ e N.            ",
"              Z.t M q q q , c.U.U.U.U.U.U.U.U.U.U.U.U.U.U.U.U.U.U.U.U.Y.Z., < , e y r B.            ",
"                          V.z.N.N.N.N.N.N.N.N.N.N.N.N.N.N.N.N.N.N.N.M.N.n.z.m.x.n.v.v.              ",
"                            V.B.B.B.N.N.N.N.m.m.m.m.                                                ",
"                                                                                                    ",
"                                                                                                    ",
"                                                                                                    "
};
