/* XPM */
static char *_fbc52dca1fd4cb6c6ac38a12bdfb5fe6B27MqM1gKjV71gk[] = {
/* columns rows colors chars-per-pixel */
"56 50 207 2 ",
"   c None",
".  c #0E0E0E",
"X  c #121212",
"o  c #1B1A1C",
"O  c #14161C",
"+  c #34171B",
"@  c #2B2119",
"#  c #2E1F20",
"$  c #222323",
"%  c #29272C",
"&  c #3A2A29",
"*  c #372828",
"=  c #232531",
"-  c #292C39",
";  c #252831",
":  c #2D303D",
">  c #343435",
",  c #3D3C3D",
"<  c #35363B",
"1  c #480B0A",
"2  c #5D0D0D",
"3  c #5F0B12",
"4  c #46171B",
"5  c #5C1919",
"6  c #6A0D0D",
"7  c #7D0D0D",
"8  c #661516",
"9  c #7B1B17",
"0  c #49271B",
"q  c #573A1D",
"w  c #421B22",
"e  c #731725",
"r  c #4A2C2C",
"t  c #4D3722",
"y  c #433A38",
"u  c #4B3333",
"i  c #693234",
"p  c #743839",
"a  c #70332A",
"s  c #4A423B",
"d  c #554538",
"f  c #5D472E",
"g  c #725638",
"h  c #6D4C29",
"j  c #2D334E",
"k  c #353A4B",
"l  c #393A44",
"z  c #3B3F52",
"x  c #313E5F",
"c  c #552742",
"v  c #493D68",
"b  c #3E4048",
"n  c #3C4054",
"m  c #37415B",
"M  c #3C426F",
"N  c #3C4676",
"B  c #424343",
"V  c #46494C",
"C  c #4B4B4C",
"Z  c #44444A",
"A  c #594E4E",
"S  c #4D4E53",
"D  c #434657",
"F  c #574457",
"G  c #4F535A",
"H  c #525353",
"J  c #53545A",
"K  c #5C5D5D",
"L  c #565A5A",
"P  c #6D4B4B",
"I  c #634E4E",
"U  c #67594A",
"Y  c #6E4C56",
"T  c #655C56",
"R  c #774E53",
"E  c #66625C",
"W  c #7A654B",
"Q  c #464D64",
"!  c #4A4D61",
"~  c #4C5264",
"^  c #4D536C",
"/  c #55596B",
"(  c #565967",
")  c #545A73",
"_  c #565D79",
"`  c #585E7B",
"'  c #585975",
"]  c #48577E",
"[  c #6C5169",
"{  c #744E66",
"}  c #5B617C",
"|  c #626363",
" . c #6B6C6C",
".. c #65676C",
"X. c #746B69",
"o. c #71706F",
"O. c #717272",
"+. c #7B7B7B",
"@. c #797576",
"#. c #786E74",
"$. c #8C0C0D",
"%. c #900B0E",
"&. c #910D10",
"*. c #8E1111",
"=. c #881A1A",
"-. c #971111",
";. c #890C12",
":. c #A71B1B",
">. c #971E26",
",. c #862222",
"<. c #932D34",
"1. c #8F3332",
"2. c #923234",
"3. c #9B3333",
"4. c #902628",
"5. c #AD2828",
"6. c #C91717",
"7. c #E81E1E",
"8. c #C91E20",
"9. c #C33535",
"0. c #DA3434",
"q. c #86562D",
"w. c #815332",
"e. c #9C6D3B",
"r. c #973B4B",
"t. c #8E3A4A",
"y. c #905D5D",
"u. c #854357",
"i. c #A4514E",
"p. c #B04949",
"a. c #887357",
"s. c #967046",
"d. c #857D7C",
"f. c #877A75",
"g. c #8C7668",
"h. c #CD4848",
"j. c #C55B5B",
"k. c #FF5E5E",
"l. c #FF4545",
"z. c #CB6061",
"x. c #CD7C7C",
"c. c #FF6666",
"v. c #F66D6F",
"b. c #ED6164",
"n. c #83807E",
"m. c #978673",
"M. c #B48F66",
"N. c #A48966",
"B. c #CD9E6A",
"V. c #D1A777",
"C. c #3E5491",
"Z. c #4F5D84",
"A. c #5A6480",
"S. c #686E86",
"D. c #767787",
"F. c #69728D",
"G. c #4A5FA2",
"H. c #697FB9",
"J. c #4F6DC0",
"K. c #877D86",
"L. c #7C889D",
"P. c #6083DE",
"I. c #6780CB",
"U. c #6084E1",
"Y. c #7996EA",
"T. c #828282",
"R. c #87898A",
"E. c #8B8B8B",
"W. c #8A8081",
"Q. c #968989",
"!. c #87899A",
"~. c #918B99",
"^. c #939393",
"/. c #9B9B9B",
"(. c #9E9698",
"). c #A78383",
"_. c #A09F9E",
"`. c #B68C8C",
"'. c #9797A8",
"]. c #97A0B9",
"[. c #A5A4A4",
"{. c #ACACAC",
"}. c #B3B2B3",
"|. c #BCBCBD",
" X c #BAB5B5",
".X c #C78282",
"XX c #D28A8F",
"oX c #DDB688",
"OX c #EFC38E",
"+X c #EEC593",
"@X c #8A99C2",
"#X c #9DAACC",
"$X c #A8B1CA",
"%X c #C3C4C4",
"&X c #CDCCCC",
"*X c #C8C7C6",
"=X c #DADBDB",
"-X c #D6D7D7",
";X c #F0C8CA",
":X c #DFE0E0",
">X c #E4E4E4",
",X c #EDEDED",
"<X c #F0EFEF",
"1X c #F0F0EF",
"2X c #F4F4F4",
"3X c #FAFAFA",
"4X c #F7F8F8",
/* pixels */
"                                                                                                                ",
"                                                                                                                ",
"                                                                                                                ",
"                                                        T.T.T.                                                  ",
"                                                      ^././.+.T.                                                ",
"                                                    ^.+.^./.E.E.^.                                              ",
"                                                    T.@.^.L.H C  .n.                                            ",
"                                                  +.E E.+.+. X XS | d.                                          ",
"                                                  s U T.K , n.f.% L n.<X                                        ",
"                                                  d N.L.o.n.h e.t L T.,X                                        ",
"                                                  s E O.N.oXV.OXM.E d.<X                                        ",
"                                              , < ; % 4 g +X+XB.s.H  .                                          ",
"                                              y ~ ) [ $.t N.V.q.9 p i X.-X                                      ",
"                                              V J ) [ %.q.s.f 0 $.3.:.p -X                                      ",
"                                              +.< ~ [ $.t a.g @ 6 6.:.Q.                                        ",
"                                              Z = : F >.a (.Q.d -.6.p :X                                        ",
"                                            /.Z ) ^ ~ t.8 L.].D -.-.y =X                                        ",
"                                            @.D ` ^ Q t.3 _ R.o *.8 > E.3X                                      ",
"                                            Z / ` z k u.e G.] j 7 & B O.1X                                      ",
"                                          |.> ' ` z k ` >.v U.M 7 & H , *X                                      ",
"                                          [., ) _ n k ` <.c U.N 7 & H > %X                                      ",
"                                          S S ) ) = k ` { %.G.M 1 y H > %X                                      ",
"                                        ,XS ! ) ^ O n ` F 7 * + * A H > %X                                      ",
"                                        ,XS ^ _ ^ - ) ! U M.w.1 , H Z $ *X                                      ",
"                                        *XD ) _ ^ - ^ y a.M.0 @ C H s X *X                                      ",
"                                        T.l _ _ ^ - Q y W f @ f.#.H l X  X                                      ",
"                                        T.D _ _ ^ - ) X.d q 1 9.`.K , $ K 1X                                    ",
"                                        H ^ _ _ ^ - ~.z.i.d ,.h.j.d.$ $ H ,X                                    ",
"                                      |.k ' _ _ n = A.XXl.h.2 5.z.+.X $ H ,X                                    ",
"                                      O.Q _ ) _ - z _ !.v.7.5 M.f.C . $ B [.                                    ",
"                                    %XZ ^ ^ ) _ j D _ } ~.j.3 ( H B o > , E.                                    ",
"                                    _.o # w w & = Q _ ) G 1.2 V H H S $ | -X                                    ",
"                                      (.P 8 8 1 4 K.` / H 1.2 V H O.y.C =X                                      ",
"                                        :X*X| 9 0.XXS.' / 2.2 L R..X3.                                          ",
"                                          4X#.p.c.k.'.' _ 2.2 .. XXX).                                          ",
"                                          *Xi 6.c.;X!.) / 4.6 A f.x.9.a                                         ",
"                                          |., r.b.~.( ) Y $.=.I K d.x.P                                         ",
"                                          ^., D.!.) S ) Y $.=.I A T  .B %X                                      ",
"                                        ,XC C ) _ ( H ' R 7 =.I H A H > %X                                      ",
"                                        |.B S ( ' J H ( <.6 6 1.H H H < %X                                      ",
"                                        ^., B Z J H H I ,.1 2 2.H H B B &X                                      ",
"                                          *X+.| > > > r R o.r 5 > > | {.                                        ",
"                                              >XK R.L (.>X4X&X .+.| |.                                          ",
"                                              2Xn.*X+.&X    3X^.{.R.}.                                          ",
"                                              %XR.$Xn D.>X  =X) $X#XZ.L.&X                                      ",
"                                              }.A.Y.Y.I.D.,X&Xx H.].J.F.U  X                                    ",
"                                              }.j #.T.K.s =X=X( / ..^ ..T [.                                    ",
"                                                ^.^.^.^._.,X4X2X<X<X<X<X                                        ",
"                                                                                                                ",
"                                                                                                                "
};
