/* XPM */
static char *_dcf747d95cd4ac4a99c8a364d1a80ba9QYb5CNebtAlLx74[] = {
/* columns rows colors chars-per-pixel */
"50 50 183 2 ",
"   c #272317",
".  c #292417",
"X  c #2C2619",
"o  c #2D281B",
"O  c #362E1D",
"+  c #3D321F",
"@  c #2E2D22",
"#  c #302C21",
"$  c #273329",
"%  c #3E3623",
"&  c #353825",
"*  c #233E36",
"=  c #243F38",
"-  c #40331F",
";  c #483A25",
":  c #254337",
">  c #254238",
",  c #29453C",
"<  c #274938",
"1  c #294C3A",
"2  c #33453D",
"3  c #2C543A",
"4  c #2F593B",
"5  c #305C3B",
"6  c #33633D",
"7  c #376A3D",
"8  c #386E3E",
"9  c #3A733E",
"0  c #3E7B3F",
"q  c #584329",
"w  c #49463B",
"e  c #454237",
"r  c #664D30",
"t  c #6E5332",
"y  c #675437",
"u  c #755635",
"i  c #2E4941",
"p  c #324C44",
"a  c #3B554C",
"s  c #395948",
"d  c #365049",
"f  c #3F7D40",
"g  c #3D7242",
"h  c #5A5549",
"j  c #425C52",
"k  c #475E58",
"l  c #436A4D",
"z  c #466B51",
"x  c #49784E",
"c  c #656158",
"v  c #68655D",
"b  c #516661",
"n  c #5B6F69",
"m  c #566B65",
"M  c #5D716B",
"N  c #6F6C65",
"B  c #736E65",
"V  c #60736E",
"C  c #77746C",
"Z  c #816342",
"A  c #887862",
"S  c #3F803F",
"D  c #41813F",
"F  c #428241",
"G  c #478A42",
"H  c #498D43",
"J  c #4E9345",
"K  c #539B46",
"L  c #529747",
"P  c #559351",
"I  c #59A448",
"U  c #5DAA4A",
"Y  c #59A647",
"T  c #60AE4B",
"R  c #63B34C",
"E  c #67B94D",
"W  c #6ABC4E",
"Q  c #66AC55",
"!  c #68B353",
"~  c #72BB5C",
"^  c #6E807B",
"/  c #73857E",
"(  c #6F9D70",
")  c #6C996D",
"_  c #76B567",
"`  c #6DC14F",
"'  c #6FC350",
"]  c #71C551",
"[  c #73C951",
"{  c #7AC75D",
"}  c #7BCB5C",
"|  c #7FC963",
" . c #9C8268",
".. c #81BD71",
"X. c #80C668",
"o. c #8BC976",
"O. c #91CA7F",
"+. c #8CD370",
"@. c #93D27A",
"#. c #768782",
"$. c #7F8E8A",
"%. c #808F8A",
"&. c #84938F",
"*. c #869591",
"=. c #899793",
"-. c #8A9894",
";. c #989A96",
":. c #A29D95",
">. c #8FB38E",
",. c #8EA594",
"<. c #97A198",
"1. c #96B596",
"2. c #9EAAA6",
"3. c #A2ACA9",
"4. c #B1ABA2",
"5. c #A8B1AE",
"6. c #ACB4B2",
"7. c #B7B6B2",
"8. c #B6BDBC",
"9. c #BBB2A8",
"0. c #C2B7AA",
"q. c #90C483",
"w. c #9AD882",
"e. c #A1D48F",
"r. c #A9DB96",
"t. c #A7D598",
"y. c #AFD7A1",
"u. c #BADDAC",
"i. c #B6C6B8",
"p. c #BFDFB2",
"a. c #BFE0B3",
"s. c #B9E4A8",
"d. c #CBC3BA",
"f. c #C0DFB5",
"g. c #C7DDBE",
"h. c #C7E5BB",
"j. c #C7E9BA",
"k. c #C6E4BA",
"l. c #BFC5C4",
"z. c #C2C6C4",
"x. c #C5CCCA",
"c. c #CCCECD",
"v. c #C5CFC7",
"b. c #C6D5C3",
"n. c #CCD4CD",
"m. c #D3DECF",
"M. c #CED2D1",
"N. c #D2D5D4",
"B. c #D6D9D8",
"V. c #DBDDDC",
"C. c #DEDBD7",
"Z. c #CDE3C4",
"A. c #D3E8CB",
"S. c #D7E6D1",
"D. c #DAE4D7",
"F. c #DEE4DD",
"G. c #DAEFD1",
"H. c #DCF0D4",
"J. c #E2EDDE",
"K. c #DEE1E0",
"L. c #E5E5E5",
"P. c #E4ECE2",
"I. c #E9EBE7",
"U. c #E7E6E8",
"Y. c #EBEBEB",
"T. c #F0EFEF",
"R. c #EAF1E8",
"E. c #EFEFF0",
"W. c #F4F4F4",
"Q. c gray96",
"!. c #F4F5F4",
"~. c #F6F6F6",
"^. c gray97",
"/. c #F2F2F2",
"(. c #F7F7F8",
"). c #F8F8F8",
"_. c #F9F9F9",
"`. c #F9F8F8",
"'. c gray98",
"]. c #FBFBFB",
"[. c #FEFEFE",
"{. c #FAFAFA",
"}. c #F8F7F9",
/* pixels */
"[.I./.~.L.].U./.}.L.].U./.}.L.].U./.(.L.].U./.}.L._.U./.}.L.].U.Y.}.L.].U./.}.L._.U./.}.L.].I./.(.K.",
"}.Y./.W.U.W.Y./.W.I.W.Y.T.W.I.Q.Y./.W.I.W.Y././.I.Q.I././.I.Q.Y./.W.I.Q.Y./.W.I.Q.Y.T.W.I.Q.Y./.W.U.",
"L.Q./.I._.L.Q./.U._.L.Q./.I.{.U.W./.U.{.L.}.E.Y.H.g.}./.I._.L.}./.I.[.L.Q./.U._.L.Q./.U._.L.Q./.U.[.",
"I./.E.Y./.Y././././.Y./.Y.T./.Y././.E./.Y./.Y.Y.h.f.W.Y.Y.W.Y././.Y./.Y././.Y.W.Y././.Y./.Y./.T.T.W.",
"[.U./.(.L.].I./.}.L.{.I./.}.L._.U./.W.L._.Y.l.i.@.j.I.u.I.L.].Y./.Q.L._.U./.Q.L.[.I./.Q.L.{.U./.(.K.",
"Y.T./.Y./.Y././.Y././.T./.Y./././.T././././.V./ L o.a.p.Y./.T.T.E./.Y././.T.T./.Y././.Y.T./.T./.T./.",
"L.Q./.U.}.L.W./.U.].L.}.Y.I.].L.Q./.U._.L.Q.8.p 5 L e.J.I.].L.~./.U._.L.Q.T.I._.L.}./.I.}.L.Q./.U.[.",
"(.Y./.W.Y.W.Y.E./.Y.W.Y././.I.W.Y././.I.W.L.V > 4 Q r.Z./.Y.Q.Y././.I.Q.Y./.W.Y.Q.Y././.Y.W.Y././.I.",
"[.I./.W.L._.Y.T.W.L._.I.T.Q.L._.I.E.Q.L.`.V.&.6 f R } +.P.I._.I./.W.L._.I./.Q.L._.I.T.Q.L.}.I./.W.L.",
"L.W./.Y.}.I.W./.Y.(.U.W.T.Y.`.I.Q.E.Y.(.I.=.s 7 L ' [ { Z.!.U.W./.Y.(.U.W./.Y.(.I././.Y.}.U.W.E.Y.{.",
"L.W.T.I.}.U././.Y.}.I.W.T.Y.(.U.Q.E.Y.(.I.z.l 0 I R ' U X.A.I.W./.I.}.U.W.T.Y.}.U.W.T.Y.(.I.W./.Y.'.",
"[.U./.(.L.}.I./.W.U.{.I.T.(.U.}.I.E.Y.c.Y./ 3 x J W K T o.D.].I.T.(.L.}.U./.Q.L.].I./.(.L.}.I.T.(.K.",
"W.Y././.I.W.Y./.W.Y.W.Y././.Y.W.Y./.z.m -., 1 8 H E ] ] ] u./.Y././.U.W.Y./.W.I.W.Y././.Y.Q.Y././.Y.",
"L.}./.U.{.L.Q./.U.].L.~./.U.}.L.(./.U.V , > 8 F R W ` ' U X.m._./.U.].L.Q./.U._.L.~./.U.].L.(.T.Y.].",
"Y././.T./.E./.Y././.Y././.Y././.Y././.-., < 4 9 J K K [ R ~ A.P.T.E././././.T./.Y././.Y./.Y././.T.T.",
"[.I.Y.}.L._.U./.W.L.].I./.W.L.{.I.E.(.8.a 5 < 3 D I K ] ] { s.g./.W.L.].I.Y.}.L.].U./.(.L.{.U.Y.(.K.",
"Y././.E./.Y././.T./.Y././.E./.Y././.Y.#.< 3 5 S H J F T T T @.H./.Y.W.Y././././.Y././.Y./.Y././.T.W.",
"L.Q.E.I._.L.W.E.I.{.L.(.E.Y.{.L.(./.N.M : < 7 9 S S Y Y T U | H./.U._.L.Q./.I.].L.~./.U._.L.}./.U.].",
"Q.Y.T./.I.}.Y./.W.U.Q.Y.E./.I.Q.Y./.c.a 4 6 5 7 9 S ` T ` U q.R././.I.Q.Y././.U.(.Y./.W.I.(.Y.T.W.U.",
"].I./.Q.U.}.I./.Q.U.}.I./.Q.U.(.Y./.K.b < 7 9 0 9 0 T [ ` ! | D./.Q.U._.I./.W.U.}.U./.W.U._.I.T.W.L.",
"L.Q./.I._.U.Q.T.I._.U.Q.E.I._.U.Q.W.5.> = i 7 4 g S Y [ E U W y.Y.I.}.U.W./.I.}.U.Q./.U.}.U.Q./.Y.{.",
"U.W./.Y.Q.Y.W.T.Y.(.I.W./.Y.Q.Y.W.Y.$.1 3 6 s 1 s S T [ [ R T Q D.Y.Q.Y.W./.Y.Q.I.W./.Y.W.I././.Y.(.",
"[.U./.W.L.].U./.Q.L.{.U./.Q.L.{.Y.6.a 3 4 : = 4 9 9 H ` [ [ [ ! f.(.L._.U./.}.L.{.I./.W.U.{.U.T.Q.L.",
"W.Y././.Y.W.Y././.Y././././.Y./.E.C = = : = = : 7 S S L U W [ w.j./.Y.W.Y.T./.Y.W.Y././.Y.W.T.T.T.Y.",
"K.}.T.I.].L.Q./.U.].L.~.E.Y.{.L.B.b < 5 3 : 1 = < 9 H G G W [ r.I.I.{.L.W.T.U._.L.(./.U.}.L.(.Y.U.[.",
"/.T./.T.Y./.Y./.E.E.E.E.E.E.E./.x.$.s g g < 7 3 : 3 J T K [ [ } r.A././.Y././././.Y././.Y./././.T.T.",
"[.U./.(.L._.I./._.L.].U./._.L._.R.2.i 3 6 : i 3 3 < S T K Y ' R ` k.L.].I./.W.L._.I./.Q.L.{.I./.Q.L.",
"U.W.T.Y.W.Y././.Y.!.Y.!.T.R.!.Y.!.5.i : 3 : = < 7 6 S J F S U R _ S.Q.Y././.Y.W.Y././.Y.W.Y.W.Y.Y.`.",
"L.Q./.U.}.L.Q./.Y._.U.!.E.Y.].P.!.3.i 3 < = > > 4 g f 5 f K R ! >.b.].U.W.T.Y.{.L.Q./.I.}.U.Q./.I._.",
"_.U./.W.I.}.I./.!.U.!.Y.E.!.U.!.,.z 3 s : 3 < = = 3 6 6 G Y R R _ i.Y.`.Y./.W.U.}.Y./.W.I.Q.Y./.Q.L.",
"}.Y./.W.U.~.Y./.!.U.!.Y.E.!.Y.K.x 5 5 < = 3 4 = = : 1 i F H I W W O.F.}.Y./.W.U.(.Y././.U.}.I./.Q.L.",
"L.(./.I.}.U.W./.I.].U.!.E.Y.].N.s < < : = < 5 : : = = < g K E [ [ R y.L.Q.T.I._.L.Q./.U.}.U.~./.I.[.",
"I.W./.Y.Q.Y./.E.Y.W.Y.W./.T.x.n i = = 4 < > < > 6 3 4 > 5 J R R [ W { Z.!.E.Y./.Y./.E.T./.Y./.E.Y.~.",
"].I./.~.L._.I./.Q.L.].I./.}.3.* = > 1 4 > = = > 6 4 3 3 : 9 H J R W [ j.I.T._.L.].U.E.~.L.].Y./.~.K.",
"T././.T./.T.Y.T././.T.Y./.V.n * = > g 4 = = = = < 4 1 > 1 5 6 D H T W o.P.E./.E.E.T.E.E.T.T.T.T./.T.",
"K.W./.U._.L._./.U.{.L.Q./.&., = > = < > = = > = = < > > , < 8 D f J ..b.~.E.I.].L._.E.I.].L.~.E.Y.].",
"W.Y.T./.Y.W.T.T./.Y./.E.E.x.a a #.i i = i , * $ * $ @ 5 < < 6 3 9 0 P i.R.E.E.Y./.R.E./.Y./.T.E./.Y.",
"].Y./.(.L._.U.T.(.L._.Y.E.Q.<.2.2.a *.k l.^ 2 # % ; 2 F l , 1 d s g S ) 1.E.~.U.{.I./.~.L.{.I./.W.L.",
"U.W./.Y.(.I.W./.Y.Q.I./.E.Y.E.M.m ;.K.F.L.K.c.c ; u y :.n.^ V N.M.( ( v.F.T.Y.!.Y./.T.Y.~.U.!.E.Y.}.",
"L.W./.U.(.U.W.T.I._.U.Q.E.Y._.B.*.K.Y._.U.Q./.N ; t A C.R.L.M.Q./.b.;.U._.E.I._.U.(.T.Y.{.U.!.E.I.{.",
"].I./.W.U._.I./.(.L._.Y./.Q.U.Q.V./.W.U.}.Y.T.C X q Z d.(.U.{.Y./.W.B.}.U./.W.L._.I./.Q.L._.I./.(.L.",
"}.Y./.W.I.Q.Y.Y./.Y.Q.Y.E./.I.Q.Y.T./.I.Q.Y.T.C X ; t 0.(.Y.W.Y.Y.W.Y.Q.Y./.W.Y.(.Y.E.!.I.(.Y.E.W.U.",
"K.}.Y.U.].L.W./.U.{.L.(./.I.{.L.}./.I.}.L.(./.N - O r 9.Y.`.L.(./.I._.L.}./.I.].L.(.E.Y._.L.(./.Y.].",
"Y./././.W.Y././.E./.Y././.E.W.Y././.Y./.Y.W.L.c X X ; 9.T.W.Y././.Y./.Y./.T.Y.W.Y./.E.Y./.Y./.E.Y./.",
"[.U./.(.L.}.U.T.Q.L.{.U.E.(.L._.U./.W.L.].Y.;.@ + + . :.Q.L.{.I./.}.L.{.U./.W.L.].I./.W.L.].I./.(.K.",
"Y./.T.T./././././.W.Y././.Y./.Y.T./.T./.E.x.;   . .   y C.W.T.T./.Y.W.Y././.Y././.Y./.E./.Y././././.",
"L.Q./.U.}.L.W./.I._.L.Q./.U.].L.~./.U.}.U.;.w o h h w @ 4.I.L.(./.U._.L.Q./.U.}.L.W./.U.{.L.W./.I.[.",
"Q.Y.T.W.Y.W.Y./.W.I.Q.Y./.W.Y.Q.Y./.W.Y./.U.7.v x.E.7.c A d.(.Y.T.W.Y.Q.Y./.W.Y.~.Y././.Y.W.Y.E.W.U.",
"{.I./.W.L.}.I./.W.L.}.Y./.W.L._.I./.W.U._.I.Y.T.L._.I.U.Y.L.{.Y./.W.L._.Y.T.W.L._.Y.T.Q.L._.I./.W.L.",
"U.W./.Y.Q.I.W./.Y.(.U.Q./.Y.(.U.W./.Y.Q.U.Q./.Y.(.U.W./.Y.(.U.W./.I.(.U.W./.Y.}.U.W.T.Y.}.I.W./.I.}."
};
