/* XPM */
static char *_bf78a30c70e4d82986f6fe576ad6633S4Flu9lECvJazK7b[] = {
/* columns rows colors chars-per-pixel */
"50 50 252 2 ",
"   c #2C1A00",
".  c #391B02",
"X  c #0C3900",
"o  c #1A3902",
"O  c #152800",
"+  c #272600",
"@  c #3B2301",
"#  c #362A01",
"$  c #253505",
"%  c #383605",
"&  c #333B16",
"*  c #491C03",
"=  c #452403",
"-  c #432B04",
";  c #4A2907",
":  c #562908",
">  c #473407",
",  c #553506",
"<  c #4A2511",
"1  c #552C14",
"2  c #563315",
"3  c #473416",
"4  c #62310B",
"5  c #084B01",
"6  c #144B02",
"7  c #184905",
"8  c #0C5402",
"9  c #025C03",
"0  c #0B5B02",
"q  c #025C09",
"w  c #085707",
"e  c #135402",
"r  c #1A5507",
"t  c #1C5016",
"y  c #254906",
"u  c #245905",
"i  c #354F0A",
"p  c #026302",
"a  c #006B02",
"s  c #096707",
"d  c #136804",
"f  c #027302",
"g  c #0A7504",
"h  c #027C03",
"j  c #0B7C05",
"k  c #037C09",
"l  c #0C7C0B",
"z  c #04730C",
"x  c #14740A",
"c  c #127B0A",
"v  c #177A07",
"b  c #056811",
"n  c #047612",
"m  c #157A11",
"M  c #186B11",
"N  c #266709",
"B  c #337911",
"V  c #2A7314",
"C  c #4D4911",
"Z  c #665011",
"A  c #694E15",
"S  c #466B1A",
"D  c #695323",
"F  c #4C7527",
"G  c #6F6C34",
"H  c #7B7B4B",
"J  c #857E4E",
"K  c #028304",
"L  c #03830B",
"P  c #0B820B",
"I  c #018A0A",
"U  c #098405",
"Y  c #16840C",
"T  c #068911",
"R  c #168A12",
"E  c #079715",
"W  c #1A991B",
"Q  c #02910E",
"!  c #258614",
"~  c #368519",
"^  c #26941B",
"/  c #2D8C17",
"(  c #289B23",
")  c #399725",
"_  c #3E8B23",
"`  c #16A524",
"'  c #2EA82C",
"]  c #129D1E",
"[  c #469628",
"{  c #579836",
"}  c #4B912D",
"|  c #708A36",
" . c #48A734",
".. c #56A637",
"X. c #48A12C",
"o. c #64A63B",
"O. c #43811C",
"+. c #709548",
"@. c #66A841",
"#. c #77B04E",
"$. c #7EB260",
"%. c #77C857",
"&. c #878C3C",
"*. c #909053",
"=. c #A59857",
"-. c #8DA64C",
";. c #96B74D",
":. c #87AB58",
">. c #93AE5B",
",. c #96AB54",
"<. c #8DB35C",
"1. c #86B653",
"2. c #9BB354",
"3. c #94B35C",
"4. c #9CB45C",
"5. c #99BB5D",
"6. c #95B857",
"7. c #92AC48",
"8. c #A4BB54",
"9. c #ADBC55",
"0. c #A2BB5C",
"q. c #ADBC5D",
"w. c #A5B55A",
"e. c #B5BA59",
"r. c #A6AF55",
"t. c #9C9863",
"y. c #A69965",
"u. c #99A867",
"i. c #8CB465",
"p. c #93B562",
"a. c #9AB562",
"s. c #95BA64",
"d. c #9CBA64",
"f. c #9CBD6A",
"g. c #95BA6C",
"h. c #96BD71",
"j. c #8EAE63",
"k. c #A6A766",
"l. c #A3BC63",
"z. c #AABB62",
"x. c #A2BE6A",
"c. c #A7B768",
"v. c #B6BB68",
"b. c #A9AA75",
"n. c #AAB675",
"m. c #B6AF6F",
"M. c #C4BB70",
"N. c #C0BC5B",
"B. c #87C65A",
"V. c #9AC357",
"C. c #ACC25C",
"Z. c #A6C35A",
"A. c #B4C35C",
"S. c #BCC85C",
"D. c #88CA63",
"F. c #9AC364",
"G. c #98C868",
"H. c #9CD36C",
"J. c #99D871",
"K. c #99CB72",
"L. c #A4C364",
"P. c #ABC463",
"I. c #ABCA63",
"U. c #A4C26C",
"Y. c #ABC36B",
"T. c #ACCB6C",
"R. c #A5CB69",
"E. c #B4C463",
"W. c #BAC463",
"Q. c #B3CB64",
"!. c #BBCB63",
"~. c #B2C46B",
"^. c #B4CA6C",
"/. c #BBCC6B",
"(. c #BBC56D",
"). c #A6D46A",
"_. c #BCD16C",
"`. c #B8D268",
"'. c #A4C372",
"]. c #ABC571",
"[. c #ACCA74",
"{. c #A7CB78",
"}. c #B3CC73",
"|. c #BBCD73",
" X c #B6C675",
".X c #ABD476",
"XX c #B4D275",
"oX c #BCD375",
"OX c #BCD47B",
"+X c #B6D77A",
"@X c #B4E278",
"#X c #C3CA5B",
"$X c #C9D25C",
"%X c #D3D95D",
"&X c #C3C563",
"*X c #C3CC64",
"=X c #C2CC6B",
"-X c #C8CB6A",
";X c #C3D363",
":X c #C3D26C",
">X c #CCD36D",
",X c #CEDB6C",
"<X c #CBD665",
"1X c #D3DB63",
"2X c #D3DC6C",
"3X c #D8D769",
"4X c #C3CB72",
"5X c #D3CD76",
"6X c #C4D374",
"7X c #CCD573",
"8X c #C5DB75",
"9X c #CCDA75",
"0X c #C4D57C",
"qX c #CBD47B",
"wX c #C4DA7C",
"eX c #CCDC7A",
"rX c #D3DC74",
"tX c #D4DD7B",
"yX c #D5D67A",
"uX c #DBCE6E",
"iX c #E5DA78",
"pX c #DBE26B",
"aX c #DAE16A",
"sX c #C8E278",
"dX c #DBE373",
"fX c #D4E27C",
"gX c #D9E578",
"hX c #C5E06B",
"jX c #E2E76E",
"kX c #E6E779",
"lX c #B7B786",
"zX c #C7BE85",
"xX c #B5D482",
"cX c #BAD983",
"vX c #B9C984",
"bX c #B5E885",
"nX c #B3F68C",
"mX c #C3DC83",
"MX c #C9DC87",
"NX c #D6D983",
"BX c #CECB89",
"VX c #C7E488",
"CX c #D8E785",
"ZX c #D8EA98",
"AX c #D8F696",
"SX c #D3F191",
"DX c #E3EC82",
"FX c #E5E888",
"GX c #E8F388",
"HX c #E5F595",
"JX c #EFF294",
"KX c #EEE29E",
/* pixels */
"$.i.<.s.}.MX7X#XN.N.5XFXJXNXv.z.7.;.Q.8XgXGXHXDXC.9.9XJXJX8XC.q.A.e.v.!.!.`.;XS.dX,X<X;X$X;XhXsX`.^.",
"#.$.j.l.~.oX4X&X-X7XrXFXNXv.w.z.Y.L.I.`.`.@X@X`.;.Z.`.SXGXsXW.(.(.W.*X:X!.;X#X#X<X2XdXdXdXkXgXCX`.^.",
"c.d.a.>.2.w.E.:X!.eXfXgXCX(.v.wXoXXX).F.1.1.B.%.B.D.V.@XAXSX8X4XNX7X9X;XA.9.A.9.#X3XkXkXFXkXkXgXtX6X",
" Xn.z.w.2.;.8.Q.`.sX8X@XmX}.Y.mXVX@XH.#.O.d v v ) X.[ o.bXAXVX0X|.I.C.I.Q.:X,X>XN.uXiXiXkXFXtX>XCXfX",
"v.(.4XqXoXZ.;.;.Z.).).XXVXbXcXSX@XJ.%...! g h P R ( (  .J.nXH.F.).F.H.).).`.`.`.uXuXuXuXiXFXrX&X>X7X",
"NXyXNXfX7XC.;.7.V.V.).).H.G.H.H.{ / ! v j k T I T W ( ^ ) [ ~ B B ~ { #.B.).@XsX:X*X&X&X5XyX7XE.W.:X",
"FXFXNX>XA.C.V.6.V.B.B.B.} ~ ~ ! R j h K U L L h k T R P c Y j j h U ' '  .o.D.J.Q.C.C.A.~.^.P.w.E.*X",
"5XyXrX=XA.Q.Q.C.V.1.H.B./ d Y j U h K T K h L P R P h h h K U h Q E ' ' '  .%.@XH.R.I.I.P.Z.5.6.P.E.",
"*XsXgXfX9X7X4XI.L.F.o. . .( I K I I K K K U L P L h h K K K K K Q ] ` ` ' ' ....B.H.5.5.F.5.5.3.5.0.",
"S.sXCXfX9XqX6X~.+XF.{ ) ^ W E Q I K K K h L U h a f f h K K K K I T E T T W ) X.o.H.G.5.5.6.<.5.U.P.",
"V.A.sXCXfX^.Y.XXVX#.~ R P E ] E W Y U j P P h f p a f U U j U U L I L h L R / [ { H.{.6.5.l.].[.4.d.",
"Z.Q.sXSXwXXXXX+XJ.{ V v K Q E E ^ ^ Y l l g f a p a g l v U v j l P P P P Y R ! [ H.G.1.].OXOX].l.U.",
";XsX8XT.T..XK.$...m s l h K I K R Y v g p p 9 9 9 p s s v c c g x l l l U j j v / %.J.G.cXVXxXa.l.T.",
"FX>X/.+X+X1.} V V b z l P U K U U U s p 9 8 8 8 8 w 0 s x l l l Y c g h U I R W ) %.D.D.G.{.J.p.l.T.",
"JXyXNXAX.X} p d l n h h P P j U k h a p w r t y 7 6 8 w b n L L Y g f h K Q ] ' ( )  . .} @.B.1.P._.",
"yXHXAXL.O.0 9 z n n a p g g g c L z p 9 8 t o o O o 7 w p p n n f a p f h I E ` ` W ( ) ) ..B.#.6.0.",
"`.sXS u e 8 9 q n b p q p s s x z a p 5 b t O O $ $ 6 w 9 p 9 9 p 9 p a h I T I E f K ^ ) X...o.3.4.",
"VX`.S 7 e 8 9 q b b q q 9 0 M M p s b 5 X & & & & & 7 w 9 q 0 9 b s a a z L T I h h Y R ! [ %.B.F.l.",
"T.`.| { { } V 5 q q w 0 5 5 6 e 8 8 w 6 X O & # $ y r w q q b s M x g g k L L L I f 9 a x @.nXnXVXVX",
"7.^.0XbXxXg.@.t 6 8 5 5 5 e r u 6 6 X t $ O % # + $ 7 w 9 q q b m x x v l P l k l c p 0 8 ~ bXSXXXY.",
"r.W.eXVXVX{.G.@.S N 6 X 5 X o o S S & $ O   @ @ # $ 7 0 q q p b d x v m c Y c x s g 8 N B | cXcX^.T.",
">Xe.4XCXSX[.g.j.$.+.F V i i i S u.u.H &   & ; = @ y y e 9 q q q p d d x x x x v d N N { s..XmXa.~.~.",
"7X-XCXCXZXz.,.:.h.K.n.x.a.u.a.c.lX*.lXH @ 3 1 : > % y 6 w w w w 0 0 0 d d d d e N o.s.G.[.Y.z.v./.6X",
"7XFXJX4X~.,.-.-.>.n.MXVXvXv.c.c.G   lXlX% * : : , > y 7 7 w w t 8 e e 8 8 6 e 6 N #.XXl.P.|.(.NX/.6X",
"FXCX:XC.8.2.7.-.P.OXmX0X|.|.v.u.G C H G * * : : ; , C y 7 7 y t 6 r 6 7 u u u #.s.L.^.XX~.W.!.7XqX6X",
"8X8XoX`.P.l.4.2.,.Y.VXZXMX0X Xv.b.J H & . * : : 4 C *.h.F.+.y o y u 6 V +.:.$.{.d.R.|.oX6X7X7X9X6X0X",
"XX+XOX+XXXY.5.2.-.0.wXHXHXNX6X8XvXb.*.O # = : 4 4 4 4XZXcX-.i i i y y F h.xX]. XT.XXoX6X9X8X:XE.^.|.",
"R.[.XXXXXXT.L.2.Z.4.C.8XHXHXCXwXa.n.u.C % = : 4 : Z M.KXBXv.&.&.| +.| +.{.vX].z.}.|.|.^./.^.q.7.l.Y.",
"<.5.s.F.R.XXXX^._.E.8.E.sXGXCX:Xw.c.n.*.% @ : 4 4 , C G | z.v.(.oXwXXXT.0XOXv.q.z.Y.}.Y.x.U.s.:.4.a.",
"i.<.<.3.d.XXOXoX_./.E.A.:X9X>XW.P.a.f.b.# = 1 : : , G BXc.(.(.&X8X8X:X!.6X4Xq.2.z.v.'.].'.h.i.p.d.d.",
"i.s.i.<.3.L.XXoX/.E.A.!.!.*XS.S.E.2.a.u.% . 1 4 : D BXHXoXQ.:XrX<X;X#X;X,X7X(.q.(.Y.].{.K.i.i.g.g.f.",
"i.G.f.p.3.d.T.0XoXq.w.Q.=XE.9.9.2.4.c.*.< . 1 * : A KXNX6X_.tXrXdXsXaX<X2X9X9XqX}.c.c.].xXh.h.K.g.s.",
"s.f.f.p.<.p.x.U.f.d.a.w.2.2.w.P.V.6.l.b.3 . < 1 ; A FXJXtX=X=XtX7XyXgXDXDXgXfXgXZ.I.|.d.5.R.L..XK.h.",
"p.a.f.p.g.u.j.:.j.3.>.p.>.3.a.L.;.6.x.b.3 < 1 1 : D M.FX7XS.A.~.4XyXFXDXGXgXsX`.`.`.oXR.0.R.Z.XXU.F.",
"a.a.a.'.{.{.p.:.<.<.>.>.>.2.0.l.V.Z. Xb.< < < 1 , Z M.uX;XS.9.9.v.5XyXgXDXGXhXA.Q.^.OX+XT.R.L.XXY.U.",
"3.p.d.'.xXxX{.f.s.a.a.f.l.4.5.l.Z.I.v.k.# = 1 1 : 4 e.uX$XS.C.8.e.#X-X*XaXgXaXA.8.0.oXwXoXXXI.+X^.Y.",
">.a.x.{.xXcX{.'.f.f.x.'.x.0.l.0.V.Z.v.k.- = 2 : , Z e.-X-X*XA.8.e.#X$X#X#X1X<XS.9.8.|.oXXXXXR.oX^.^.",
"x.U.{.cXcXxX'.f.p.a.a.d.a.4.4.0.P.P. Xm.> < ; * ; Z M.5X:X:X`.`.#X3X3X%X$X1X1X;X,XE.Y.z.Y.|.T.XXoXoX",
"OX+XvXcXcXxX{.h.3.p.a.d.l.5.0.c.^.P.c.m.> < = = ; Z &X4X=X:XsXfXdXkXkXjX1X1XaX2X9X/.z.w.x.oX^.T.oX0X",
"VXxX[.XXxXxXvXxXU.U.].}.].Y.~.|.~.4.y.y.; = : 2 ; A 4X4X~.!.8XgXDXkX3X%X%X1XaXdX>Xq.w.2.Y.cX}.P.|.OX",
"mXcX[.x.].].U.'.d.x.'.|.}. X|.wX[.b.t.t.- < 2 1 ; D BX(.w.z.8X:XdXjXjXaXpXjXjX2X#X(.E.z.|.cX}.L.P.^.",
"x.Y.a.4.f.f.f.f.x.x.].+XcXOX0XMX Xh.b.t.@ = < 2 2 D zXk.c.z.6X9XrXpXjXaXjXjXjX2X>X/.v.l.U.}.Y.d.l.x.",
"l.l.3.>.d.a.>.a.x.x.].OXcXOXwXMXvXlXlXt.2 . 2 2 - D m.=.k.r.E.6X2X2XaXaXpXjX2X2X*XW.z.c.U.[.L.d.a.d.",
"Y.l.4.4.f.d.a.x.f.d.x.|.OX|.oX0XBXvXn.G >   1 ; < C J *.v.(.~.>X2XrX2X%X%XaX2X<XS.q.z.l.Y.U.F.5.|.OX",
"].Y.4.4.x.U.x.].d.a.l.Y.}.^.~.|.ZXvXu.%   . 4 : - - % C r.qX-X*XrX,X<X$X$X$X$X#X!.q.w.l.a.6.1.3.mXCX",
"0XY.4.3.x.'.d.'.U.d.l.Y.|.~.~.~.p.t.G % - ; 4 4 C 2 > C &.-XtXDX>X;X*X#X#X#X#X#X=Xv.c.l.3.:.<.L.|.qX",
"mXY.4.a.[.XX]. XcXY.Y.Y. X~.z.z.>.a.=.*.=.=.J =.J =.=.7.e.yXGXGX!.!.S.#X#X#X#XS.(.E.Y.].F.<.F.XX6X7X",
"XXl.>.x.mXVXMXMXVXOX~.~.^.P.5.4.x.x.l.m.5Xe.m.KXBXKXNXNXFXGXrX9.C.A.S.*X;X#X!.S.=X6XwXMXXX5.F.XX6X8X",
"L.d.j.x.VXGXCXFXNXBX0X6XP.OXc.:.p.d.7XDXFXkXyXqX~.BX7XtXtX=XC.0.8.q.A.!.:XS.A.*XtX7XCXCXP.4.d.oXoX/.",
"5.<.:.a.MXfXrXrXyXqXqX8X/.VX'.j.i.d.9XGXkXkXFXtXl.^.:XtXrX(.}.L.5.0.P.Q._.S.A.;XgX9XCX8Xq.4.L.oX^.P."
};
