/* XPM */
static char *fd55bd58a0e54d13f06874606fe4bf0fvCLIN3aG7Hrr0U6l[] = {
/* columns rows colors chars-per-pixel */
"50 50 256 2 ",
"   c #B77E00",
".  c #977D34",
"X  c #A87F30",
"o  c #C47C00",
"O  c #9A881D",
"+  c #B38A18",
"@  c #9A8B24",
"#  c #9A932D",
"$  c #B69123",
"%  c #B99D35",
"&  c #AA942A",
"*  c #A9A43B",
"=  c #B9A73B",
"-  c #9DA33F",
";  c #C58A00",
":  c #C88C00",
">  c #C88705",
",  c #CA9806",
"<  c #D89D0C",
"1  c #C99915",
"2  c #E29A0B",
"3  c #DAA706",
"4  c #DBA819",
"5  c #D3A913",
"6  c #E6AA1C",
"7  c #EAB917",
"8  c #F6B616",
"9  c #EAB408",
"0  c #C59C35",
"q  c #CEA426",
"w  c #D9A626",
"e  c #DEB129",
"r  c #C5A838",
"t  c #D8B53A",
"y  c #D5A835",
"u  c #E8AD27",
"i  c #E8B628",
"p  c #F8BA28",
"a  c #E1AB33",
"s  c #E9B839",
"d  c #F8BD38",
"f  c #DFC30C",
"g  c #E6C20B",
"h  c #EAC316",
"j  c #EAC928",
"k  c #EAC636",
"l  c #F7C539",
"z  c #F4C932",
"x  c #DECB27",
"c  c #979E56",
"v  c #989447",
"b  c #A49B46",
"n  c #AE9950",
"m  c #96A94C",
"M  c #8BAA57",
"N  c #9BAE54",
"B  c #94AC57",
"V  c #8BB35C",
"C  c #95B254",
"Z  c #9CB254",
"A  c #93B35C",
"S  c #9CB45B",
"D  c #9CBA5E",
"F  c #99BB57",
"G  c #91AB4B",
"H  c #A8AA4A",
"J  c #B6A848",
"K  c #A9B44B",
"L  c #B7B448",
"P  c #A4A956",
"I  c #B7AC56",
"U  c #A2B455",
"Y  c #ACBC55",
"T  c #A3B55B",
"R  c #A3BA5C",
"E  c #ABBC5C",
"W  c #A9B658",
"Q  c #B3BD5D",
"!  c #B7B757",
"~  c #94AD66",
"^  c #8CB565",
"/  c #93B563",
"(  c #9CB563",
")  c #94BA64",
"_  c #9CBB64",
"`  c #93BB6B",
"'  c #9BBC6B",
"]  c #97B668",
"[  c #96BD74",
"{  c #8EAE63",
"}  c #A3BC63",
"|  c #ABBD62",
" . c #A3BC6B",
".. c #A7B76A",
"X. c #B4BE63",
"o. c #B7B968",
"O. c #A7BD74",
"+. c #B3B06B",
"@. c #CCAE43",
"#. c #C5AA47",
"$. c #D1AD45",
"%. c #CAB448",
"&. c #D7B447",
"*. c #C3BB56",
"=. c #D4B858",
"-. c #CFAC53",
";. c #E7B848",
":. c #EFB447",
">. c #C4BB65",
",. c #D3BA6C",
"<. c #D7AC53",
"1. c #ABC25C",
"2. c #A9C459",
"3. c #B3C35C",
"4. c #BCC55D",
"5. c #B4C95D",
"6. c #BBCA5C",
"7. c #B6C156",
"8. c #B5D05F",
"9. c #9DC26C",
"0. c #9CC267",
"q. c #9DC47A",
"w. c #A5C264",
"e. c #ACC364",
"r. c #ADCA64",
"t. c #A4C36B",
"y. c #ABC46B",
"u. c #ADC96D",
"i. c #A7CC6B",
"p. c #B3C463",
"a. c #BBC564",
"s. c #B4CA65",
"d. c #BBCA63",
"f. c #B2C56B",
"g. c #B9C76A",
"h. c #B4CA6C",
"j. c #BBCB6C",
"k. c #B5D26D",
"l. c #BCD16D",
"z. c #B9D365",
"x. c #ABC571",
"c. c #ABCB72",
"v. c #A6C776",
"b. c #B4CC73",
"n. c #BBCD73",
"m. c #B7C978",
"M. c #BBD274",
"N. c #B6D37B",
"B. c #BCD47A",
"V. c #B9D777",
"C. c #AED073",
"Z. c #BFE379",
"A. c #C2CC5C",
"S. c #C8C45A",
"D. c #D5C857",
"F. c #D2CB55",
"G. c #E9C649",
"H. c #FCCC4D",
"J. c #F9C947",
"K. c #E7C756",
"L. c #FFCD5A",
"P. c #F8C958",
"I. c #EDD459",
"U. c #FED25D",
"Y. c #FBD455",
"T. c #EDD249",
"R. c #FFE259",
"E. c #C3CC64",
"W. c #CACC63",
"Q. c #C3CD6B",
"!. c #C4C669",
"~. c #D6C968",
"^. c #C4D265",
"/. c #C3D26C",
"(. c #CDD36C",
"). c #CDD868",
"_. c #D6D969",
"`. c #C3CA75",
"'. c #D8CD7C",
"]. c #C3D473",
"[. c #CBD573",
"{. c #C4D973",
"}. c #CBDA74",
"|. c #C3D57A",
" X c #CBD47C",
".X c #C4DB7C",
"XX c #CBDB7C",
"oX c #D3DB74",
"OX c #D2DC7B",
"+X c #D9DA76",
"@X c #ECCA66",
"#X c #F8CB66",
"$X c #E8D869",
"%X c #FEDA64",
"&X c #FED56B",
"*X c #FFD96A",
"=X c #F7D366",
"-X c #E7D975",
";X c #FCD876",
":X c #E3CD78",
">X c #C9E47A",
",X c #D5E37B",
"<X c #DAE37A",
"1X c #DBE576",
"2X c #DBE16A",
"3X c #E1E36C",
"4X c #E5E778",
"5X c #F5E378",
"6X c #EDF07D",
"7X c #CCB890",
"8X c #C4B3A3",
"9X c #BBD884",
"0X c #BFE18D",
"qX c #C8CD84",
"wX c #D5CB85",
"eX c #C3DC82",
"rX c #CBDC82",
"tX c #C7D584",
"yX c #D5DA84",
"uX c #D3CF93",
"iX c #EBD685",
"pX c #FCD786",
"aX c #E7DC9E",
"sX c #F7DA9A",
"dX c #EBCD8F",
"fX c #CCE283",
"gX c #CDE389",
"hX c #D3E383",
"jX c #DBE583",
"kX c #DAE989",
"lX c #DAF08D",
"zX c #E2EA83",
"xX c #E6E986",
"cX c #E7F189",
"vX c #E9EC94",
"bX c #FCE996",
"nX c #E8F394",
"mX c #F6F18E",
"MX c #EED8A7",
"NX c #FDE7A5",
"BX c #FCEBB6",
"VX c #FEFABB",
"CX c #FBF2A9",
"ZX c #CEC0A5",
"AX c #E5D5C5",
"SX c #FFE9C6",
"DX c #FFF9C8",
"FX c #FFFEDC",
"GX c #FEF5D9",
"HX c #FFE7DB",
"JX c #FEFEE4",
"KX c #FEF6EA",
"LX c #FFF6FE",
"PX c #FEFBFD",
"IX c #FBFAF5",
"UX c #FCEFF5",
/* pixels */
"M { A ( b.eX.Xs.j.s.j.hXnXOXX.W m y.y.k.>XlXlXzXY !.iXnXnXeXy.Z Y ! S.6.8.z.z.^.1X1X).).W.W.(.<Xg.f.",
"M M { } x.B.M.j.j./.XXjX,Xj.W p.T j.k.k.Z.>XZ.z.m W wXbXvXrXk.z.E.W.A.6.8.z.8.5.z.).<X+X1X-X4XcXn.f.",
" .( ( C Z R f.M.].XX,XhXXXX.| ].].{.1.w.i.0.} ( X.o. XnXnXOX/.{.(.).^.6.8.8.6.2.6.(.4XzXzXzXzX<XOX X",
"m.t.} ( S Z R g.].{.]..XXX].`.XX,X}.Z C _ ) [ ] ..P X.+XvXxXOX^./.E.d.5.8.8.z.6.E.OX<X+XjX4X,Xz.jX,X",
"f.f.m.eXM.E Z Z s.s.j.M.XX X XhX1X>XT S ] [ O.v.| S K 8.xXmX4XX.4.1.E 1.1.z.l./.Q.^.`.(.<XzX,Xz./.[.",
"rXrXrXrX|.e.Z m W y.f.j.n.b.n.XX,X1Xe.S ~ ~ ~ B Z K * * ~.6X-XI E E 2.r.s.z.l.].[.Q.S.!.[.,X/.2.3./.",
"kXkXhX].s.E Y U Z R e.| e.} | n.}.<Xh.N c c P v # # # & J D.~.X.3.s.l.V.V.z.s.Q.Q.!.! Q p.s.1.K p.Q.",
"[.yXOXj.p.p.s.p.T R T T | } T e.z.,Xj.P P +.,.~.D.D.T.t r J *.>.p.k.>XfX.Xk.d.j.!.! X.X.p.2.F F 1.p.",
"Q.OXOX X}.XXM.p.y.S G N y.|.b.D fX>XX.H n =.=XL.Y.z R.T.t = # ! !.].,XhX.XV.].s.o.Q W W 2.F F C R R ",
"Q.+XcXkXXX].j.p.M.y.T Z | B.yXkXlXp.I ~.=X:.s :.p z p k G.K.=.J K W p.1.p.l.].p.p.g.g.E Z C F D w.y.",
"H !.jXzX[.s.f.h.B.M.h.h.n.XXhXvXXXd.S.=X%X:.6 2 2 6 : 4 T.=X=X* # m K K 2.h.].p.j.n.g.R Z _ t.t.D _ ",
"L E.OXyXXXl.M.{..XM.h.|.rXrXXX[.(.+X-XK.d p 2 > o > > 1 s J.U.I.& - ! Q 2.3.k.k.M.n.w.S y.fX9Xx._ w.",
"OX(./.[.].g.f.h.B.h.| e.g.Q.`.(.+X_.=XH.i 5 2 6 6 w e q q i l R.&.* H 4.5.2.r.k.k.h.w.} N.gX9X_ w.i.",
"xX[.!.g.g.E } | b.M.h.p.W E !.!.=.K.I.J.w 3 6 J.%X%X%Xy 1 u i l *X% O L 6.8.2.k.r.u.y.y.v.m.t.A } h.",
"cXjXjX,XM.1.w.M.h.eXXXj.a.d.E.*.#.K.J.e 5 5 s T.#X=X@X&.4 6 h z %X= @ = 6.5.2.i.0.w.y.t...( ( B | h.",
"yXxXnXnXj.m Z b..XfXXXj.[.yXOX*.=.;.J.4 , 4 j k =X;X@XP.a : 3 8 J.= & %.7.2.2.2.2.2.S S Z } B C Z e.",
" XyXkX XT m T h.|.fXkXvXvX'.!.,.sXsXa o k j h h d L.=Xl i 3 > u L.=X#.O Y 7.Y 2.1.d./.d.a.d.6.3.N S ",
" X XrXhX Xe.R s.|..XM.`.`.m.!.wXBXsX:.> k x f g p J.Y.J.l 3 + u =X=X#.O L 4.7.5.j.}.oX[.(.oX)./.} _ ",
"a.`.XXhXfXM.y.R B.|.|.|.|.`.!.wXDXNX:.o k k g 9 8 d J.H.H.4 : u U.&X#.@ S.W.d./.(.XXOX,X1XzX4X,XfXeX",
"N g.fX.XM.b.w.C u.N.eXtX Xn.m.qXVXNX<.  K.T.j g 8 p d H.U.u ; 6 U.=X@.@ 7.(.^.l.j.(.[.oX1XcXjX,Xn.y.",
"U p.{.fX>Xi.D A D u.y.t.....+.tXVXbXt 1 @X;XT.7 8 8 i J.%Xs : u U.&X@.O *.W.d.d.a.d.!.[.OXoXoX/.g.y.",
"d.1.{.lXlXu.F D M _ t.} ..( O.tXVXbX&.$ :XsXY.z 8 9 7 d L.s : 6 U.&X@.O *.W.a.3.Q Q a.!.E.d.a.3.p.p.",
"{.|.>XlXfXw.C M G  .N.m.O.+.O.qXDXCX&.% dXBX;XH.p 8 7 7 J.a : 6 L.&X&.O *.(.E.Q W E Q Q a.p.Q p.j.].",
"].cXnX.XR C G G S x.9XtX9X+.O.uXDXCX&.$ sXDXNX;Xd p h 9 l 6 : 6 L.&X&.O *.(.a.Q E | X.a.a.a./.].j.].",
"cXhX`.e.U Z m G O.|.tX|.qXqXo.uXFXBX&.$ MXGXSXsX#Xl h f h 3 : u L.&X$.& *.S.Y p.p.o.g.n.n.p.f.]. X|.",
" X X].h.e.E T N m g.kXuXuX X+.uXFXVX&.$ aXJXKXBXpXL.j 9 h 3 : u L.&X$.O *.4.! p.X.f.n.|.|.B.{.eX|.M.",
"j.]. X|.b.p.T N m ..yXxXvXiXo.,.DXBX&.$ aXKXIXKXBXpXl f h 3 : u L.&X$.O *.4.Y g.b.n.|.B..X9Xk.h.b.b.",
"f.b.n.n.n.b.e.Z T W o.[.vXiX! >.BXNX&.+ aXJXPXIXHXMXI.x h 3 : u L.*Xy O S.W.3.s.h.n.m.b.b.h.} C w.| ",
"S S F 0.y.M.M.h.l.3.W a.4X4XI I sXpXt $ aXJXPXPXUXSXxXT.z 3 : u L.%X@.O W.(.3.Z D y.b.y.t. .) M S _ ",
"A V V V _ C.V.V.l.s.7.4.+X~.J L ;X&Xa $ aXJXPXPXLXUXNX$XT.6 : u L.*X@.O ~.}.1.Z }  .x.x.t.0.) A _ _ ",
"/ ) 0.V V 0.C.V.k.1.5.4.W.S.* %.=XU.u $ aXFXIXPXLXLXSXbX*Xu > u L.*X@.O F.,Xh.r.i.y.x.x.9.0.A ) ] ' ",
"^ ` 0.V V 0.i.V.k.2.Y Y A.S.* %.%XY.u + aXFXIXPXLXLXKXBXpXs 1 u L.*X%.O S.,X}..Xb. ._ t.c.t.) ) _ ] ",
"` 9.` ^ ^ ^ 0.0.V 0.T P H I I J *XH.e + iXFXGXPXPXUXPXKXNX;.+ p P.=X@.& _.xX<XXXe.u.v. .D y.y.u.9.9.",
"^ ` ` ` ^ 0.V V V V B B N P +.*.#X:.t y ~.BXFXIXLXPXIXUXNX;., p U.@X% %.5X6X1Xp.k.b.9Xx.} y.y.h.t.9.",
"( ( ) 9.q.i.^ M V M B B S +.o.>.$.P.a $.% :XDXJXIXPXLXKXdXn y &.=X&.O K.5X4X1X5.h.u.9XB.b.f.r.l.i.y.",
"S Z _ i.9XN.i.0.A ) _  .O.O...o.0 ;X:.y q &.iXDXJXIXKXAX7X7X:X$X@X0 O D._.2X1X5.R R N.eXV.b.r.M.f.u.",
"N N | h.B.N.c.9.0.' O.v.O.' O.>.<.#X;X:.s q &.NXBXGXHXZX8XHXDXiX@X% %.F.S.F.).8.1.R b.N.b.k.y.M.f.h.",
"E | f.B.eXN.t.0./ / ] ] ~ ~ q.qX,.0 pX#Xs 5 q &.,.+.7XZXAXKXFXMX,.r $XF.F.2X).z.{.f.y.w.y.k.s.M.n.].",
"|.n.b.eX.XN.c.9.A / ~ ( ( ( O.qX:X#.K.%Xl e w $ X . n ZXGXKXJXBXJ D.3XF._.3X).,X>Xf.e.S w.k.u.s.M..X",
"gX9Xb.C.N.N.N.C.t._ O.m.9Xm.O.O.wXwXJ K.R.l a 0 <.sXMXSXFXFXDX+.J 5X$X$X_.2XA.6X/.1.( Z w..Xk.w.n.B.",
"0X9Xv.[ v.v.t.t.t._ e.b.n.n.`.|.m.`.=.=.G.;.;.;.#XNXDXDXSXBXuXc :X3X3X3X3X6X1XoXj.s.y.y.b.B.k.w.y.y.",
"q.q.[ ^ 9.9.' 0.t.} y.n.].].[.rXm.x.K * = =.&X;XpXpXBXDXwXv b I +X4X3X3X3X3X1XoX{.j.| } y.b.r.D } t.",
"[ [ ^ ^ ` ` A ( | } p.].[.].[.XXc.C.2.K H -.>.=.,.,.dXZXI & *.-X_.-X2X2X2X3X2X).l.s.| } y.i.y.D S | ",
"9X[ ` ^ ' ] ] _ } D | h./.l.Q.|.9X9X/.p.! I n @ . # v # # L S.S.oX1X2X).).2X).^.4.| T }  .y.0.A m.B.",
"9X[ { { ' t. .x.} S R u.h.s.s.k.gX9Xc.R W o.! I +.b m I ! S.F._._.oX(.W.A.F.^.^.j.| ..} ( A A C rXrX",
"9X[ / ~  . .' y.t.R D y.c.u.u.u.v.v.] | X.X.E W +.P f.`.d.A.2X6X^.^.^.A.A.A.6.6.Q.X.T ..S M (  .n.|.",
"eXf.S S b.b.y.c.B.y.t.c.c.i.0.9.' ( O.B.n.Y N Z S u.{.|.].jXcX3X4.6.6.A.A.A.A.4.g.g.f.x. .A ' N.|.oX",
"b.} N ..rXgXrXrXgXB.b.c.c.0.) ) v...O.n.6.Y r.B..XV.{.>XkXnX1XY Y 1.d.^.).^.4.4.Q.`.tXeXm._  .N.].[.",
"y._ M O.hXcXjXkXyX X|.n.e.eX' { ^ _  XjX4X1X}.j.f.V.}.oXOX/.e.R R 1.5.j.z.4.7.d.OX}.jXXXy.R } M.M.h.",
"F V M ( eXhX1X+X X X X|.g.fXt.{ ^ _ {.6X6X6XxXXX} u.[.oX[.l.h.} S R 1.j./.6.4./.,X}.kX}.R R | V.h.e."
};
