/* XPM */
static char *_70041932c0940f0f1b3a9b75071cd4fGNys1RbfpxAe7tm4[] = {
/* columns rows colors chars-per-pixel */
"50 50 189 2 ",
"   c #006465",
".  c #026A66",
"X  c #016C6B",
"o  c #086D6D",
"O  c #03716E",
"+  c #09716F",
"@  c #0A6E71",
"#  c #047372",
"$  c #0B7474",
"%  c #047A76",
"&  c #0C7A76",
"*  c #077778",
"=  c #0E777A",
"-  c #057C7A",
";  c #0C7C7B",
":  c #117675",
">  c #127976",
",  c #117779",
"<  c #127D7C",
"1  c #1A7F7E",
"2  c #05827C",
"3  c #0C817E",
"4  c #13817E",
"5  c #19817E",
"6  c #10887F",
"7  c #0F7F80",
"8  c #147E80",
"9  c #197E80",
"0  c #0D8381",
"q  c #0D8A85",
"w  c #0E8C89",
"e  c #148483",
"r  c #1A8484",
"t  c #148986",
"y  c #1B8987",
"u  c #1B8688",
"i  c #148C8A",
"p  c #1B8C8B",
"a  c #0D928B",
"s  c #15928E",
"d  c #1B918E",
"f  c #169591",
"g  c #1C9492",
"h  c #159993",
"j  c #1C9A95",
"k  c #1E9C98",
"l  c #208484",
"z  c #228987",
"x  c #21878A",
"c  c #228D8C",
"v  c #298D8D",
"b  c #23928E",
"n  c #2A918E",
"m  c #238E90",
"M  c #2D8F94",
"N  c #229593",
"B  c #2B9594",
"V  c #239996",
"C  c #299996",
"Z  c #279798",
"A  c #2C9698",
"S  c #249C9A",
"D  c #2A9C9B",
"F  c #329694",
"G  c #309997",
"H  c #31969A",
"J  c #329D9D",
"K  c #3B9C9D",
"L  c #1FA29C",
"P  c #24A19D",
"I  c #2BA19E",
"U  c #34A19E",
"Y  c #39A19F",
"T  c #2D9FA0",
"R  c #27A4A0",
"E  c #2CA4A2",
"W  c #27AAA3",
"Q  c #2DAAA5",
"!  c #2EACA8",
"~  c #33A4A3",
"^  c #3AA4A3",
"/  c #33A8A5",
"(  c #3DA8A5",
")  c #33ACA9",
"_  c #3AACAB",
"`  c #2FB3AB",
"'  c #34B1AD",
"]  c #3BB1AD",
"[  c #3CB2B1",
"{  c #3EBAB5",
"}  c #41A9A7",
"|  c #43A7A9",
" . c #42ACAB",
".. c #4AACAD",
"X. c #49B0AD",
"o. c #44B4B2",
"O. c #4BB4B3",
"+. c #44BBB5",
"@. c #4CB8B6",
"#. c #4FB7B8",
"$. c #44BCB9",
"%. c #4CBCBB",
"&. c #51B8B7",
"*. c #53BDBB",
"=. c #54B3B5",
"-. c #4BC2BE",
";. c #5AC0BF",
":. c #5EBDC1",
">. c #4EC4C2",
",. c #53C3C2",
"<. c #5CC4C5",
"1. c #53C9C6",
"2. c #5CCAC6",
"3. c #55CDCA",
"4. c #5ACCCB",
"5. c #57D0CB",
"6. c #5DD1CE",
"7. c #5DD4D1",
"8. c #60C7C6",
"9. c #62CBC7",
"0. c #62CCCC",
"q. c #69CDCC",
"w. c #62D2CE",
"e. c #63D4D2",
"r. c #6AD5D4",
"t. c #65D9D6",
"y. c #6AD9D6",
"u. c #65DAD9",
"i. c #6CDBDA",
"p. c #71D3D3",
"a. c #74D8D6",
"s. c #74D7DA",
"d. c #73DCDC",
"f. c #7BDFDF",
"g. c #7CDDDE",
"h. c #6EE3DF",
"j. c #6DE1DE",
"k. c #74E1DF",
"l. c #6FDFE0",
"z. c #7FDEE2",
"x. c #6DE5E2",
"c. c #6FEBE3",
"v. c #73E3E4",
"b. c #72E6E4",
"n. c #73E3E3",
"m. c #7AE4E4",
"M. c #75EAE5",
"N. c #7BE9E6",
"B. c #7DE6E8",
"V. c #74ECEA",
"C. c #76ECEA",
"Z. c #7EEBE8",
"A. c #7DEEEB",
"S. c #7CEBEA",
"D. c #7BF1EF",
"F. c #7DEFF0",
"G. c #7FF5F2",
"H. c #7DF8F6",
"J. c #82E1E4",
"K. c #81EAE7",
"L. c #83E5EB",
"P. c #84ECEB",
"I. c #81EFEC",
"U. c #84EDED",
"Y. c #8BEFED",
"T. c #82F1EE",
"R. c #87EFF0",
"E. c #8AEFF2",
"W. c #81F2F1",
"Q. c #84F7F4",
"!. c #84F3F2",
"~. c #8AF3F2",
"^. c #88F6F3",
"/. c #8BF5F4",
"(. c #84FAF5",
"). c #8BF9F6",
"_. c #87F7F8",
"`. c #8AF6F8",
"'. c #85FAF8",
"]. c #8CFDFC",
"[. c #92F6F4",
"{. c #91F7FB",
"}. c #94FEFD",
"|. c #9BFFFF",
" X c #9DFFFF",
".X c #9EFFFF",
"XX c #9CFFFF",
"oX c #A2FFFF",
"OX c #ABFFFF",
/* pixels */
"e % 7 t ; b.E T j s s s f i 7 7 7 # C A.C d p N 3 y 5 5 Y  X XF z < : *.Y.F B.^ m g g u g 7 8 8 ; 8 ",
"# t 8 X %.,.* R P d s L f g 7 7 7 * D ^.N p C b b % 3 U r.~.K.9.z . X.K.9   0.i.7 7 k T p ; 7 ; ; 8 ",
"e ; 4 ; e.D 7 S s V s 6 g V p ; e X X. Xl.i - q 2 O ] h.y.p b N.2.*. X$ : v N i.l.' s i 3 3 e & ; ; ",
"< < ; < s.r ; S s s s L V i 0 7   J |.n.S.'.3.5.;.7.h.' D D t e Z.|.K * < e o.i :.V.F.u.D & 4 5 e 8 ",
"> > 1 5 d.5 r p y g s V 3 I o.E <.`.O.m N :.4.:.$.k i 0 s { Q N m E.c # k T >.T 0 w V 6.F.y + 5 < ; ",
"5 : 5 1 f.v n y % g d V 6.n.G.n.e.N 0 Z T L 7 i - - g S s ) ' I N `.J D T T f ' W W g t I. .5 : & ; ",
"> l : 1 [.=.$ r 5 y N 5.b.E e p i 7 V f k g T w - 7 i f i R P i 8 L.7.7 g f k w h T T e n.p.5 F z p ",
"F l z q.OXg.> X O 3 I '.t p N b g k i S ! d i 0 0 0 i g V d P g u `.{.:.w i k f g g 7 X O.[.o > v c ",
"o n a.Y.v p.Y.@.^ o.).}.S d b d f w L ! w g i 7 0 - i Z i / g 7 q.L. .F.4.T f f g 8 9 o ..oXp.5 o : ",
"K./.a.z o > oX|.}.}.M.'.].P g V h h W f g f w 0 0 7 e T u T u <.E.B u N 7.H.3.a = l 9   a.OXoXoXk.k.",
"2.( O > < r U.*.y t t s >.'.g i w ` h q S 0 7 # ; # 7 9 ~ 0._.oX .l n V 0 j l.u.u * o :.J.F l z &.&.",
"0 . 6 4 5 5 T.N y D d V q H.:.7 k L f f p t 8 u 8 8 A B.z.l.l.}.X.z b g s w w :.`.0.J.J.9 : < ; o + ",
") s d y 6 C I.Z s s i P i [ H.x.>.R i I e O u $ = &.T. .T D i / [.I b j f k 0 * J oXL.@ = e * i 0 0 ",
"P s f d d _ W.p V p j 0 S w T 6.].].4.* H l @ > p.a.< $ * N / e ;.(.6 6 k a k 7 8 L.M @ x * g 0 s g ",
"I ` 6 d e D.e.e i P g w S g 0 Z ^ B  X^ o K =.J.<.> 5 % 6 V k P 6 M.{ h w h g g 8 l.H x 9 i w h g f ",
"{ L a t t.D.4 S g q S g f f f R C r O.oXOXJ.q.K : 1 $ 5 3 2 P +.a -.c.2 j f f f u z.^ 8 T g k f j f ",
"Y U @.e.}.( < N m g i k f w P W g t z }.g.9 $ x 8 ; u $ e 0 S ! T [ G.R E R R k i x._ 7 Z N g g i d ",
"K.P./.OXT.C J p u g k w f L P k s p B /.v o 8 t y = = u , ; R s w Z ].T g g Z Q T >.F.k i i p Z 4.i.",
"( U B @.~.U ^ S T i k T ' $.T h g 6 p [.r r 3 3 d C * = u g f g p _ F.d g S d p g Z 7.G.4.6.l._.e.-.",
"> : # . y.^ X x p e g k T T w f P 6 @.K.$ < 3 3 * e C N e N k j 7 u.6.t N i d g Z 0 7 [ b.|.R.Z t < ",
"$ 5 5 + ( w.X e = e ; - i T T f i 3 k.9.5 < 3 2 0 - 7 7 8 7 i i ~ b._ u u - e g i Z Z i ~ `.Z # = * ",
"5 4 4 O K r.# # 7 e # ; i T T f p +.).B A c t q - i # 8 T t R { '.,.p e ; e * * 7 # Z O e. .X u y < ",
"4 > 4 . O.2.# u ; 7 7 0 7 w Z ! +.}.|.F y b g j f f g p 8 _ x.].].A y e * i ; r ; u u r l.B # = # ; ",
"> 4 6 . o.z.X < u = = * T u.V.V.(.6.2.).O.p g s s s Z e _ _.Q k b.N c * < 8 * < * m u y s.8 9 8 < 4 ",
"+ 6 3 4 5 Y.Y + # # m u.F.:.T T d I c Y ).C i j j w E ; S.@.- ) A.p y e e * < < < 9 m > m.u < , < 8 ",
"4 3 + > > Y  X;.O.v.v.%.g w g w d d ( B I.4.0 q q s ; O.S.g p h M.D p < < y = > 1 m < u J.< , u ; ; ",
"4 5 3 5 > 5 /.|.d.:.u # i f k f s b p B n.}.u.5.{ ] %.Q.T i L q 5.].( 6 o < * r < A $ H }.x 1 $ 8 < ",
"3 + 3 4 5 < T.z X * e N T s w j L g b x B.P.$.:.t.1.y.A x d j h 3 2.}.|.R.m $ e M u @ <.oX9 : y < < ",
"3 3 4 O $ } p.$ < p p i h h h h a d 2 : R.x X *   = $ = m T w h P 3 T.y.C ). .5 o $  .}.Y.> : < 8 e ",
"5 O r y o k.&.  c y N g j L h h j d . ;.z.9 B u m 8 9 8 8 0 L w g 3 +.;.r U U.r.8.p.oXoX .: z * < < ",
"4 b & $ <. X}.:.Z p V d q h h a s 2 ] }.K l 9 , u c 8 , 7 S a a s g w.t.y 5 > ( &.} q.oXB = r < ; = ",
"5 4 ( P.l.o.D ,.d.N i j g h h h 6 I I.oX^ @ < 8 < 8 m u - - k a 6 _ D./ p b b 4 5 + c /.r : > < r r ",
"& C M.V d D Z i >.4.Z E ! E k k i e.].r.~.y 8 ; e ; ; b d C g g 1.'.' d g d g d I p U k.6 3 + 5 v x ",
"& k.C t g S p E T v.N N m 0 Q T ^ I.^ # D e.O ; * 3 t % d d 1.T.7.I S k j f s g 0 V b k.X.5 > n r > ",
"3.%.0 V i f V g t u.T 7 d k f i +.A.y p X O.o.# ; < * d t -.M.d N $.i i s g d s P d I -.|.K.;.X.< < ",
":.3 j d g f g g 7 e._ X u e i g y t.~ B e p ,.< < r e V 3 4.o.e p >.%.Q V I V E I ] d C oXN.T.}.w.0.",
"- i V f f g g d = i !.m # 7 T u V h.Q 6 t r %.8 & r y N p 4.%.p E o.D 7 ) :.$.D t i C i.@.y 5 B ^ ~ ",
"e s k g i f i - i # c S.~ # X T j.{ P d y * *.| $ ; v N t t.$.d ~ u X <.x.1.7.C.4./ 6.w.3 B b p p d ",
"k p f w R k 2 t # u < 9 l.l.7.l.-.2 I p V ; p q.#.H u 8 +.n.t [ # X <.r.7 e # p 6.}.}.$.y x C b b S ",
"g k i k i i i - e = 8 @ , s.`.N q L P g 4 e : r ..}.m.Z.].c _ p 8 A S.* * - i ; 4 E |.D.b b 6 p b I ",
"R R Q k j s d - 7 ; 9 < : ^ r.4 j s P d p 6 e $ , oX}.}.}.d / p # d.B $ r < ; ; p d w.|.}.A.i.E C ] ",
"i 0 j P j i g t 8 8 : l X F 0.5 t ` j d P 4 $ 6 I.o.c B u.i.C % J s.< < r ; e & r t x. X4.o.2.j.6.) ",
"1.3.3.3.x.7./ e e < r 1 > } r.% P g d i y b & w.&.< p p d k.6.# i.Y $ < < ; ; e e @.].T u i 3 E 3.4.",
"] Q E L P { 7.e.b > 1   1 oX9.. N I s V V 6 V w.# g N C p _ S.i.y.O e < * < 5 4 p W.D g N Z D E e D ",
"0 p s i j i d i. .F 5 &.[.oX X&.I I N i t -.M.V ; t p N N Z ).|.c % 5 < < ; 4 3 i.7.* S i p E u p e ",
"i - 0 g g i t +.K.k.K.Y.&.Y n 9.^.6.y y h.5.g 2 0 - D S 3 N  X<.O y % < r 3 X o.C.u ~ u g T g ; 3 * ",
"# i w 0 C V 6 -..Xk.;.5 : 5 b + 5 n.M.h.5.d d s 3 q t s V v R.( e 4 > & e & ; S.^ e i T T g 7 7 e 4 ",
"7 7 - 7 s d d w.X.b 5 z 4 > F 4 X V P.}.U a h s 2 % b d p E S.U t 3 6 & e X *.d.t E / D S 0 7 ; - ; ",
"7 7 ; 0 p e -.3.E d N g y ; u p v ^ G ~./ i h j 0 ; i g i _ n.d y 6 & ; + ( [.X.J Z g g i 7 ; 7 7 < ",
"7 7 ; * e N e.] T f g f s ; 8 e v ^ B ~./ s h s t ; t N i ] n.p g 3 < 5 Y T.oXX.V g f g i 0 ; ; 8 ; "
};
