/* XPM */
static char *_aae20963aa94b3ddc88f93b856b562cVOBu8K6CNIgkSlo1[] = {
/* columns rows colors chars-per-pixel */
"50 50 179 2 ",
"   c #739D65",
".  c #76A065",
"X  c #7CA465",
"o  c #7CA268",
"O  c #8EAB5F",
"+  c #92AF5F",
"@  c #96B35F",
"#  c #98B35F",
"$  c #9EB95F",
"%  c #A3BD5F",
"&  c #82A763",
"*  c #85AB64",
"=  c #8AAD64",
"-  c #85AD68",
";  c #8AAD69",
":  c #91AF64",
">  c #8DB264",
",  c #87B169",
"<  c #8CB369",
"1  c #8EB86B",
"2  c #93B564",
"3  c #99B663",
"4  c #96B965",
"5  c #9BBB64",
"6  c #94B569",
"7  c #9AB56B",
"8  c #94BA6A",
"9  c #9BBB6A",
"0  c #95B370",
"q  c #98B670",
"w  c #9FBD70",
"e  c #A0B767",
"r  c #A3BD64",
"t  c #ACBE64",
"y  c #A3BE6A",
"u  c #A9BF6E",
"i  c #B3BE65",
"p  c #A5BF71",
"a  c #ADC45F",
"s  c #B7CA5F",
"d  c #B8CB5F",
"f  c #9EC066",
"g  c #9DC16B",
"h  c #9FC070",
"j  c #A5C164",
"k  c #ABC364",
"l  c #AEC965",
"z  c #A4C26B",
"x  c #ABC46A",
"c  c #AEC96A",
"v  c #B3C564",
"b  c #BAC564",
"n  c #B4CA64",
"m  c #BBCC63",
"M  c #B3C56A",
"N  c #BAC76B",
"B  c #B4CA6B",
"V  c #BBCC6B",
"C  c #BDD065",
"Z  c #B7D06D",
"A  c #BED16D",
"S  c #A5C171",
"D  c #ACC471",
"F  c #ADC974",
"G  c #B2C671",
"H  c #B4CA72",
"J  c #BCCD73",
"K  c #B7CD78",
"L  c #B8CF7A",
"P  c #BED074",
"I  c #B7D07A",
"U  c #C3C666",
"Y  c #C2CD63",
"T  c #CACB65",
"R  c #C0C668",
"E  c #C3CC6B",
"W  c #CBCE68",
"Q  c #C3D264",
"!  c #CBD565",
"~  c #CFD867",
"^  c #C4D36C",
"/  c #CBD56C",
"(  c #CED96B",
")  c #D2D666",
"_  c #D3DA65",
"`  c #DADE67",
"'  c #D2D66C",
"]  c #DAD66F",
"[  c #D3DB6B",
"{  c #DBDD6B",
"}  c #C2CF74",
"|  c #C0CF78",
" . c #C4D373",
".. c #CBD574",
"X. c #CDD874",
"o. c #C4D379",
"O. c #CCD67A",
"+. c #CED97A",
"@. c #D1D774",
"#. c #D5DC75",
"$. c #D3DB73",
"%. c #D8DB72",
"&. c #DBDD73",
"*. c #DADE75",
"=. c #DCDE74",
"-. c #DBDD74",
";. c #D4D679",
":. c #D0D87A",
">. c #D7DD79",
",. c #D4DB7A",
"<. c #D9DF78",
"1. c #DADE7B",
"2. c #DEE16B",
"3. c #DCE170",
"4. c #DFE375",
"5. c #DDE177",
"6. c #DDE174",
"7. c #DBE27D",
"8. c #D8E07C",
"9. c #DFE37C",
"0. c #DDE17C",
"q. c #E2E36C",
"w. c #E9E56F",
"e. c #E2E370",
"r. c #E7E574",
"t. c #E3E474",
"y. c #EBE775",
"u. c #EAE674",
"i. c #EBE976",
"p. c #E3E37B",
"a. c #E4E67B",
"s. c #E2E37C",
"d. c #E1E17E",
"f. c #E3E47C",
"g. c #E2E67E",
"h. c #E3E37C",
"j. c #EAE57C",
"k. c #EBE77E",
"l. c #EAE67B",
"z. c #EAE87A",
"x. c #EBE87D",
"c. c #EAE87F",
"v. c #EEEA7E",
"b. c #EBEC7E",
"n. c #ECEA7A",
"m. c #F2EC75",
"M. c #F2EC7C",
"N. c #F7F17D",
"B. c #D4DD81",
"V. c #DFDF80",
"C. c #DBE080",
"Z. c #DDE381",
"A. c #E0E380",
"S. c #E3E282",
"D. c #E3E483",
"F. c #E5E582",
"G. c #E9E681",
"H. c #EAE583",
"J. c #E3E886",
"K. c #E8E884",
"L. c #ECEA83",
"P. c #F0EB81",
"I. c #F4EF80",
"U. c #F3ED87",
"Y. c #F5ED85",
"T. c #F4ED85",
"R. c #F7EF86",
"E. c #F4ED82",
"W. c #F9EF85",
"Q. c #F6EE88",
"!. c #F2F081",
"~. c #F6F186",
"^. c #F6F085",
"/. c #FBF084",
"(. c #F8F085",
"). c #FFF685",
"_. c #FDF487",
"`. c #FFF987",
"'. c #FAF48C",
/* pixels */
"= X > 5 l { X.l k l ,.C.D.K.5 9 = 5 n ~ 2.b.`.4.@ j s.Y.^.8.r % % a b b U Y V ^ #.j.V X.B X.A g.z M ",
"& = # 2 s m n V Q n ,...'.D = J 9 K z Q ~ _ ..+.5 @ o.W.P.^ l V v b b Y T Y n k  ./ %.4.$.#.b.!.+.9 ",
"z = = > 5 3 k ! ( ' %.j.+.y D K G 9.j $ a l # 5 5 j ( v.(.*./ X.=.! Y T b d Q % x 2.i.[ c.!.6.[ [ ^ ",
"V 5 5 j > 3 5 l m ( ' =.} O.D +.7. .5 4 4 a j > j j k $.Y.I.+.E b b R v l v C m l ) 2.t.j.z.[ X.5.4.",
"k J A k A B O 2 Y n v Y %. .} S.9.X.z > 4 4 f j 2 4 > G G.Q.+.k v b k k m n C Q ! Q ( / $.u.h.M V #.",
"$.<. .c.a.5 > = j j s l n N O.O.a.g.x * O > $ 4 > 2 X > +.Q.+.9 l r r N V n C Q W m Y k ! e...k j @.",
"*.f.L...4 j 5 2 > 5 k B 7 r 7 H ..g.H * * X f 4 5 4 , . J f.l k V 5 B ..A B C Y m b i k Y m 5 5 j ^ ",
"@.<. .B x H k l 9 2 5 5 j 3 y y B L.5 5 X 2 4 4 j 5 * X 7 j m m y J 9.<./ n m n v v r v r k 2 5 j l ",
"V 8.t.X.+.H +.l x 4 = = 3 } o.> K.;.r 2 5 6 6 6 5 2 & - & < z z J O.1.+.0./ C n k t r 2 5 r = 2 4 j ",
"n [ 4.K.,.+.B x A z > 6 t d.x L.P.x 5 B z J D > , ; ; o o > 5 z 7 8 w S x A Q l k v v 3 r = 2 2 r j ",
"4 B 5.F.O.z k A ( ^ M J }  .j.W.E ..J ..s.g.4 2 7 6 ; & ; 9 l x 5 4 4 2 5 l n j m ) v 2 3 3 t B f $ ",
"z j 8.8.,.A E ^ ^ ^ n ^ ..@.d.N X.B.} S.9.x x y 5 > 9 6 > 6 r z l a f j k n d Q ! m r > x  .>.M @ f ",
" .>.o.J ^ k B n ^ V k k j J ..;.d.y  .} } J J J x 2 7 = = 7 y k j 4 f j j k m m l C a j o.1.J 2 j V ",
"d.1.z c x B 3 k V k k j r k B V y k y H K :.O.*.x r 2 7 e r j r 4 j k a k t b k n n k j x G G = 9 P ",
"j.F.+.J.J.7 2 V n $.9. .x 5 B H 3 k k u } s.O.x t 7 3 ; * 2 3 k l j n n n v i b k r j j 3 5 2 * > / ",
"1.L.'.U.z X z H #.,.A V } K.1.r 3 k m B ^ O.,.M 3 v 7 : : 2 r j j n n n n r r l r 4 @ 4 @ 2 = = 3 z ",
"P 1.F.O.7 6 = J o.O.S.W.^.,.k k j n V ^ ^ ..X.x 3 r t u 7 : : 7 j n C V k 5 a 5 j k V A b v M x , > ",
" .,.,.+.P 7 y z } 1.d.J B l n n V ^ ^ [ [ ! n j M t ;.H u J v k v m m Y d k l n n 0.3.C { &.=.x 2 9 ",
"B J O.Z.o.1.z 3 } N x B 4.^ v ( ^ k c V ( ^ ^  .O.p.} y u r k v n m Q ! Q m C n ! e...( e.t.z.z.f.1.",
", c 1.1.o.y > r V O.1.s./ j V ( Q 4 7 z x B / #.t.o.i } o.( R m ! =.( ( _ Q C ! C Q #.a.{ u.i.%.A 5 ",
"> 6 ,.<. .V 4 2 3 7 B 5 5 5 x z j 5 M 6 7 n k x J K } *.j.E k Q [ t.4.' ) / Y v j l x { / -.<...n r ",
"B J ^ <.!.B > > 2 r r 3 M 9 3 5 x k 3 7 z n 5 > r J j.I.,.5 j n C *.s.#.W v E t v 5 k m N B B 5 j n ",
"%.l X.).4.j O O O r x } x 6 5 z y > 2 H 1.#.A 5 > y f.~.g. .k j k ..p.=.} N b t r r v t k n 9 B r +.",
"^ n.`.@.# > O X & J o.O.5 B 6 9 9 y 3 G Y.t.( v 5 5 / v...k 4 4 4 V -.5.$.N V x 5 t i b k j ' X.J O.",
"P.I.V a > # O X u O.,.M +.G x 4 9 7 * y H.S...^ j C ( 3. .z 2 > 5 N $.*./ t t t t r b Y N n l J o.o.",
"o.j A @.$ 4 f O ; M >.S.C.+.H x y r t v G.+.4 f  .Q _ a.3.P l l j V 6.X.N i i v k k ' ] T m +.,. .o.",
"} :.f.Q n a a O * 2 ,.Y.L.o.O.X.k 5 a Q X.k 2 J c 3 ^ a.$.A n m v Q *.v v b t b R E E M E ;.$.z M J ",
"B B z n m C a > $ 5 y #.!.~.v.A $ # $ V m ^ ..>.x z ^ 3.t.C d Q Q ) V v Q i i k M V N o.;.H < , 6 c ",
"> , 4 5 n ~ n n Q n 3 v %.n.4.} 5 5 $ a 3.P.P.j.a.^ (  .l j l n ! { n l m ~ B @ z x V F 2 6 < , < 5 ",
"2 4 4 , 5 l ! Q m n M k Y Q ^ V % k # % ( e.j.Y.G.M.a. .j l m V X.Y C m ( 2.5 * 4 z S 9 S F < < f 5 ",
", < * = , k Q Q C k k C ! ^ m t r @ # r s Y } B.F.W.Y.%.^ n ^ @.^ / B n ( ! j c B c c H F , 1 6 f 5 ",
"< 4 j = , 4 l Q m 5 k v k v t k # @ @ @ k k 3 D >.I.N.N.^ V %.{ =.=.' =./ Q 3. .Z 1 f z j j f 8 1 6 ",
"4 f 5 & ; 2 j j f 5 3 @ O + t r t @ # m v 5 > = J 5.v.M.! ! ) ' ' ] r.j.t.y.y.X.c h c z f f g P F h ",
"< 4 4 4 > 5 > o = 2 O O = O 3 k % O m ! m r 4 2 5 z ..i.{ t t i R ] u.m.t.m.2.n F O. .z f 1 c F g 8 ",
"6 2 4 k n x > , * = = = e + + % @ v s k n B 5 5 4 2 j Q Y a $ r b T ] j.j.j.[ l z P P Z Z l Z F F z ",
"> - 5 x ^ ^ z 1 2 3 = t % + % % a m % k k B x 4 > 4 5 d Y m % r i b b N #.f.$.j f 1 P 8.C n l  .c g ",
"8 , z c P ^ I S z 2 5 m % : # % a 5 a v 5 B k x r z k d C Y a 5 3 v Y d a ( _ n 9 , A  .c C C Z A c ",
"8 z F H  . .z 1 - < 4 f 3 : # e r k m a n k V X.J B j m ! ! Q m m ` 2.) ! ! _ ! / m l 8 F c c C C A ",
"X.P H C. . .F g 8 , 6 8 7 3 3 r B a 5 a n s m %.O.J k N ! ! ~ 2.2.m.2._ _ ` ) 2.{ v 1 - F I z Z ^ X.",
"8.P F F B.I F I g z l B B B k V B $ > = 5 5 C ) [ O.o.v k C _ 2.u.w.q._ ` ` ) w.W k j < f 8.F g H X.",
"+.P z 8 I F g g g 9 c Z c A j O.t 5 ; o y = z r V o.O.k j a Q ` ` q.q.` w.` m.] Y Y x 9 m @.^ 8 h F ",
"z F h < 1 8 1 g g 8 z Z ^ P $.#.J 6 ; 0 G = 6 & 7 H } 7 O 5 n ~ ] ` { w.q.w.w.) / v t M x 5 m f 1 g ",
"1 < , < 1 1 1 8 f z z A  . .1...J 0 D J 9 6 X 3 r 7 z - * a s Q ` q.q.` ` { ` { U i t r z j g 1 8 8 ",
"H g > , 1 6 8 8 z 9 F A B A J o.o.O.O.p ; 7 ; m 3 - * X a a s d ) ` ` ) ) ) ` T R i 2 5 c j 1 8 o.o.",
"K 5 4 5 l f g z 7 6 z z c c z P 0.o.S 0 D 4 j 3 = 7 5 @ 4 n Q ! ` ! ) Y Q Q Y Y v a r 4 4 , * , J 9.",
"G B 6 4 > g z 5 f g 2 c B Z g c G 1 p D x 5 @ = 3 2 2 J X.n 2.N._ d Y Y Y d d d Y U r = < - 2 j / o.",
"#.K = > z O.F 5 P L 4 n Z z 8 z 5 z 9 x P 5 3 5 x k $.0.k $.`.e.a s s d Y Y Y d d m j z G   5 Q V ,.",
"J 2 > z C.Z.J K.+.,.j B H f 7 4 z x j B J 2 x X.E X.<.^ T.`.[ k a a d Y Q d b l m [ n K.D 4 n C V #.",
"r r X y F.L.L.>.<. .H | H B p X > f ^ K.b.O.X. .k A X.p.S.r 5 r % % s d Y d a v i.^ 4.K.j 9 3 d n B ",
"5 = X > } t.@.<.o.} ..B.G G.z = = 5 / i.!.).~.X.j 5 ^ >.x J <.@ @ $ t d Q s k ^ @.#.(.B 2 7 z ^ n % "
};
