/* XPM */
static char *_70596ef3e30466ca58116d7cd244120eQbxpyuFUD8hVppw[] = {
/* columns rows colors chars-per-pixel */
"50 50 252 2 ",
"   c #0A0B05",
".  c #150B05",
"X  c #191409",
"o  c #181716",
"O  c #0E1111",
"+  c #2C0200",
"@  c #290902",
"#  c #350501",
"$  c #330A01",
"%  c #3A0A06",
"&  c #251808",
"*  c #391708",
"=  c #261A17",
"-  c #3A1912",
";  c #1E2315",
":  c #292A03",
">  c #3B2409",
",  c #29261B",
"<  c #362A19",
"1  c #393419",
"2  c #243113",
"3  c #1A1E24",
"4  c #2B1F27",
"5  c #1D2629",
"6  c #1E2A33",
"7  c #1C3134",
"8  c #2D2C2B",
"9  c #262A28",
"0  c #332E2B",
"q  c #352A26",
"w  c #2A3227",
"e  c #35322C",
"r  c #38352A",
"t  c #232C33",
"y  c #292D37",
"u  c #283537",
"i  c #353333",
"p  c #3A3A38",
"a  c #392E32",
"s  c #45170B",
"d  c #481815",
"f  c #561A1A",
"g  c #4D1111",
"h  c #671A18",
"j  c #6A150E",
"k  c #462607",
"l  c #482617",
"z  c #56261A",
"x  c #4D3313",
"c  c #66291C",
"v  c #531C20",
"b  c #462826",
"n  c #592726",
"m  c #47382B",
"M  c #5A2B37",
"N  c #423C3C",
"B  c #463A34",
"V  c #58372E",
"C  c #662729",
"Z  c #772A29",
"A  c #68352A",
"S  c #7A3229",
"D  c #683537",
"F  c #763635",
"G  c #712C35",
"H  c #601E28",
"J  c #2B423A",
"K  c #37433C",
"L  c #3C4B31",
"P  c #3E4114",
"I  c #4E4617",
"U  c #464439",
"Y  c #5A4938",
"T  c #514B30",
"R  c #68473C",
"E  c #65573A",
"W  c #694D2D",
"Q  c #7E6A3C",
"!  c #2B3B44",
"~  c #283847",
"^  c #353748",
"/  c #34334F",
"(  c #453C44",
")  c #4E334E",
"_  c #713C46",
"`  c #523C6A",
"'  c #2C4748",
"]  c #364747",
"[  c #2E4957",
"{  c #354B5C",
"}  c #364855",
"|  c #39515A",
" . c #39534B",
".. c #2E4D64",
"X. c #334D63",
"o. c #344D6A",
"O. c #384B64",
"+. c #3B5364",
"@. c #3D536A",
"#. c #37566B",
"$. c #3C5C74",
"%. c #3B5D7D",
"&. c #395676",
"*. c #3D617A",
"=. c #474846",
"-. c #554949",
";. c #585549",
":. c #474856",
">. c #564C58",
",. c #575557",
"<. c #49524F",
"1. c #684B46",
"2. c #6B574A",
"3. c #75594A",
"4. c #695659",
"5. c #6F4D56",
"6. c #59614F",
"7. c #666358",
"8. c #727254",
"9. c #445768",
"0. c #565867",
"q. c #435A74",
"w. c #575A76",
"e. c #4F4C69",
"r. c #674D63",
"t. c #685868",
"y. c #6E5C6F",
"u. c #46647A",
"i. c #57636D",
"p. c #6A6766",
"a. c #766A73",
"s. c #787876",
"d. c #70706E",
"f. c #883331",
"g. c #801F19",
"h. c #865E35",
"j. c #965050",
"k. c #876B51",
"l. c #8D6E6D",
"z. c #AC7271",
"x. c #9B5F62",
"c. c #7C935B",
"v. c #748859",
"b. c #768867",
"n. c #7B8971",
"m. c #88883E",
"M. c #86985A",
"N. c #908E54",
"B. c #8BAA5B",
"V. c #8DB15C",
"C. c #95B35C",
"Z. c #9CB75C",
"A. c #91A95B",
"S. c #A5BC5C",
"D. c #B4B85B",
"F. c #889965",
"G. c #909074",
"H. c #B28974",
"J. c #8CA961",
"K. c #96AA65",
"L. c #93B364",
"P. c #94B964",
"I. c #9CBB63",
"U. c #9CBC6B",
"Y. c #98B767",
"T. c #95B36D",
"R. c #A3BB63",
"E. c #A4BC6B",
"W. c #A9BC66",
"Q. c #A7BA76",
"!. c #B2B97A",
"~. c #ADAE6B",
"^. c #A5965D",
"/. c #C3BC6B",
"(. c #AAC35C",
"). c #B7C95E",
"_. c #9EC16B",
"`. c #A5C265",
"'. c #ACC365",
"]. c #A4C26B",
"[. c #ACC46B",
"{. c #ACCA6E",
"}. c #A8CA6A",
"|. c #B2C463",
" X c #B4CB6C",
".X c #BCCC6B",
"XX c #B6C867",
"oX c #BDD26C",
"OX c #BBD166",
"+X c #ABC472",
"@X c #A8C675",
"#X c #B5CC74",
"$X c #B9C975",
"%X c #B9D476",
"&X c #ADD177",
"*X c #C2CD6B",
"=X c #C0CA67",
"-X c #C3D46D",
";X c #C5D569",
":X c #C6CB78",
">X c #C7D777",
",X c #D4D976",
"<X c #D4E178",
"1X c #E3E776",
"2X c #3B5D82",
"3X c #3D6184",
"4X c #4B5A81",
"5X c #446383",
"6X c #476687",
"7X c #536F94",
"8X c #72738D",
"9X c #8E7985",
"0X c #AE7A82",
"qX c #C27B81",
"wX c #7B8191",
"eX c #989B97",
"rX c #8E8B8D",
"tX c #AD8790",
"yX c #9BA295",
"uX c #A5A39B",
"iX c #8F97A8",
"pX c #9EA4AC",
"aX c #A8A8A9",
"sX c #B8B7B7",
"dX c #B2B1B2",
"fX c #C6B3AF",
"gX c #CEA293",
"hX c #B5CA84",
"jX c #BAD484",
"kX c #ACC681",
"lX c #C7D484",
"zX c #D4DC86",
"xX c #CCD290",
"cX c #E4C39D",
"vX c #D2E483",
"bX c #E6E894",
"nX c #C4C4B9",
"mX c #D6C6BE",
"MX c #E9F1AC",
"NX c #EAC1BF",
"BX c #B7BDC4",
"VX c #BFC5C1",
"CX c #C9CAC6",
"ZX c #D4D3CA",
"AX c #D5D6D5",
"SX c #CDD0CE",
"DX c #ECD2D1",
"FX c #EBF3EB",
"GX c #FCFEFD",
"HX c #F7FAF9",
"JX c #EBEAEC",
"KX c #DFE9E1",
/* pixels */
":X$X X`.I._.P.V.I.R.W.+XE.@XMXxXf F n s G v g C n * A n g n d d G Z z ~.bXbX>X<X-XOX.XOX(.|.+XE.E.`.",
":X:X X}.}.P.c.P.C.|.:X%X$XhXN.x g S H % g n F f # % % A v f + g Z F z > h.~.bX<X-X-XoX|.|.XXW.W.I.I.",
"%X>X}. X{._.P.C.R.W.>X:XQ x * # C G c # f G % $ R 3.l @ v D % g Z f.l @ z k E xX>X-XXX=XD.(.).[.Z.I.",
"#XXXXXoXOX{.`.`.W.:XbX^.% A C $ c G g s z + x 3.m & Y m # - n d h h s # c f.> k.~.:X*XD.).=X.X(.R.I.",
"XX|.OX;XoXoX.X:XzXzXcXW Z Z v % g g z s @ m 6.2   y G.8.T - - D G f d % h _ @ . l x N.XX).;XOX(.C.Y.",
".XoXoX;X>X-X$X:X~.k.1 + G f.n + f n $ * 2.Y   X ^ rXeXb.G.l.m @ n C D + h f.4 o D z x lXOX;XXXS.Z.R.",
"oXoX*X.X-X%X$Xk.s k * * F Z d @ l + x 2.e O 5 J d.eXs.,.4.9X4.3.* d C z g H = @ C G k xX:X.XD.|.R.[.",
"'.`.XX*X.X%X!.> F F d * g g z d @ R 1.= O t i.s.9Xs.rXdX9X,.d.6.T & % C C n @ + G F @ 1 K.lX$X[.[..X",
"}._.S.>X>XK.x * G Z f # n n $ * 2.U O o ^ ! <.p.s.7.;.rX2.B s.w L ;.l @ f C n s f n @ @ > W Q.{.[.[.",
"_.P.!.^.W 1 . - F G s # d @ Y 2.,   6 ! { ] N l.rXd.k.k.3.-.n.L L 2 Y D + d C C g z @ @ z z I hXE.E.",
"P.E.!.k z c $ s n v d + $ E ) O 3 ~ | | [ 7 a 4.7.H.gXuXgXk.d. .i.w . B 1.% s f c A d + z W x ~.E.C.",
"J.Q.^.z A C % @ n d @ b 3.1 O 6 / O...[ 9. .8 q l k.cXcXH.h.7.9 i.=.t o r 1.d # f c n + f S x N.+XZ.",
"B.@Xk.f Z H + n d @ Y ;.o O ~ / o.o.o.O.} :.0.5.z c ~.H.S c W 1.sX,.} ! O X 2.A + s D M g n z h.lXD.",
"I.uXW A C g b $ > 2.L   t ~ [ @...o...O.:.:.0.4.S h.x.c j f.Z R dX0.{ { [ 5 . B 3.@ % n V d z W lX-X",
"`.U.x l d n + m Y q O ~ ~ { #.{ ....o.O.w.0.^ 4.z S l.D j g.f.z.rX} +.[ { [ 6 O = 2.b + l A s s /.,X",
"jXC.& b - & W I & o ^ / &.X.X.X.| } { O.:.^ ~ >.D R tXx.Z g.Z fXrX .} | | X.o.~ o X Y T $ * F k D.1X",
"&XK.P & > E : 8.G.u | O.o.#.} 6 9 9 o :.8X<.e.>.5.M 0X9XG h H fX<.=.8 5 ^ O...o.[ 3 < m T & > I bX1X",
"Z.R.c.8.E : M.MXF.p 9.9.&.+.! y -.-.;.p.0.0.w.>._ M 8Xy.v H q a.ZXr U =.5 X.o.o.o.~ G.v.: 8.8.^.1X<X",
"}.U.Q.!.K.~.jXhXb.J 9.#.q.O.6 9 r r , U ,.0.e./ ` ) w.` v v M d.SX, q p 5 [ O.u.+.J K.zXN.~.xX>X,X,X",
"{.P.K.K.~.Q.U.@Xv. .u.$.q.q.t i r w T s.] w.` / 5.) w.8XM d ( =.eX, q B y ' q.$.u.J M.!.$XXXD.D.*X=X",
"@XL.K.K.I.R.`.hXb. .*.*.q.u.y i r . 6.n.} w.` ) r.r.` 8XM d -.^ eXo = N t [ 6X2Xu.' B. X XS.(.(.XXXX",
"U.K.K.A.C.}.Z.lXb.[ *.3X%.q.y i q K SX,.e.w./ a r.r.) r.b q -.^ CX0 o N y } 6X2X6X' c.&XZ.S.|.|.(.|.",
"K.J.V.B.C.&XjXxXn.| *.3X3X6Xy i w i sX:.w.4X/ ^ r.) M b = B ,.( CX0 X ( 9 X.7X2X6X .c.%X`.S.'.[.|.|.",
"T.B.B.B.&X%X%XvXb. .*.2X3X6Xp a q U BX:.w.w./ :.,.y.l.V < -.<.8 SX8 = p y 9.6X3X6X[ c.&XR.R.R.XXXXXX",
"C.C.B.Y.@X%X,XxXF.] u.3X3Xu.p e q B aX:.w.w.^ <.=.l.l.k m ;.:.3 nXw : p w q.q.6X6X[ c.#XW.W.W..X=X=X",
"Z.I.B.L.U.$XvXbXG.=.9.*.*.u.u r q q a.:.i.w.u ] =.2.W x l.4.=.= nXU r U w +.6X6X6X' c.$X|.W.*X>X,X;X",
"(.`.L.B.K.[.>XMXG.=.u.*.*.u.u e e 9 s.:.w.w.! >.8.F z z z.l.( 3 s.nXX B t 9.6X3X6X' M.$XXXXX.X;X*X*X",
"}.`.C.K.L.E.*XMXT.K u.3X3Xu.u i q 9 :.0.w.w./ a.z.j.f.f.x.z.-.o d.nXX i u +.6X%.6X' M.$X$X.X.X.X=X*X",
"OX(.I.I.E.W.W.zXG. .u.2X2X5Xy 0 N G.:.w.w.e./ r.qXqXf.h j.z.p O s.nX. N u O.3X3X6X[ c.#X$X$X.X.X-X:X",
"oXXXW.{.$XW.R.lXF. .u.2X%.5Xy 0 p p.e.w.w.{ / r.0XqXf.f.H.k.= o 6.nXX ( 6 +.6X%.u.' c.&XW.+X X X$X$X",
";XOXOXoXOXXXS.$Xb.' *.%.q.q.y 0 B -.>.>.0.) / t.y.0Xj.H 3.-.q , 6.nX. ( 6 X.u.*.*.' v.Q.Y.E.XX}.[.E.",
").OXoXOX).XX(.hXv. .$.*.*.q.y 0 K a.4 4 q q ) w.w.r.D H >.>.;.q l.nX& p t { *.*.*.' v.E.L.].[.`.E.E.",
").OX;XOX).(.(.lXn. .$.$.$.+.u r i l.4.n g d r.9X` r.G H >.t.l.2.G.U r B 6 { q.%.*.' c.+X[.{.{.{.{.{.",
"(.OXOXOX).(.(.jXb.] #.$.$.#.u i 0 q JXDXF F 0X0Xr.r._ H a.tXx.$ m ;.= p y [ 6X#.%.' J.jX#X[.E.+X{.{.",
"Z.[.oX X[.S.W.hXb.' $.%.$.@.y i q q HXZXj.qXqXgXt.r.M H 9XfXz.s mXZX. U 9 { q.2X5X' K.vX#XW.I.].`.].",
"I.].{.].E.R.I.@X8.' $.&.&.@.y a b < HXmXH x.gXtXt.r.G H l.tXl.V U fX= U t } &.&.2X! K.vX X`.[.+X`._.",
"I.P.P.L.T.P.C.T.8.] $.&.&.@.y q q < FXaXM z.tXy.5.1.h S 3.8.H.3.m dX= a 8 } q.&.4X' K.>XXX%X%X#X`.`.",
"U.V.J.J.L.V.V.T.p.' $.&.&.9.8 a r r AXs.) 0Xa.r.r.1.h f.R 5.a.1.ZXU = B t ^ @.&.&.! K.-X'.%XlX%X}.}.",
"_.C.V.J.L.V.V.T.v.J #.o.#.+.9 q < e CX=.>.p.0.>.r.5.j g.1.-.>.<.ZX, X ( y ] @.#.&.~ K..XW.#X&X%X%XOX",
"}._.P.L.T.J.V._.v.J #.o.o.+.9 r < B CX] <.0.0.>.5._ g H 1.;.>.>.ZXr = ( t } #.X.&.~ K..XW.].XX%X>X>X",
"%X{.T.U.U.P.V.&Xb.7 #.#.....5 w q p SX:.=.<.:.4.>.M v n -.;.-.6.ZX9 = p t ] +...@.u F.*XR.Z.W.oX>X%X",
"%X&X@X_.Y.P.P.hXb.J #.#.#...3 L 0 i JXuXp.;.^ a q tXDXm m U 7.uXp ; = U t ! +.X.o.' K.-XW.R.`.%X#X X",
"&X&XU.T.L.P.P.kXv.J ....o.+.5 w 8 8 GXVXuXeXa.d.rXZXDXuXl.8.yXK w nX= p 9 ] } o.O.u K.zXXXXX X}.`.[.",
"%X}.Y.T.L.L.L.kXb.7 ..#.o.X.5 i e 8 FXHXGXdXaXrXaX, =.AXyXyXaX~ CXSXX p w J O.o.q.t T.zX<X X XR.P.].",
"%X#X@XE.T.T._.Q.;.u { o.X.{ 9 i 0 0 FXHXKXiXpX6XwXiX>.BXd.BX8X8XBXU : B 2 u +.X.+.5 N.MXoXOX`.C.C.].",
"#X&X&X@X_._.@XT.2 p 9.[ { { 3 8 , a FXHXFXrXwXiX8XrXKXiX+.iX8X7XwXaXX r w u 9.@.9.K : D.<XOX'.R.C.E.",
"#X{.@X@X_._.&XM.2 J  .} } ! o = & = GXFXFXHXBXwX9X8XJXBXi.d.8Xa.s.fX. < o t } ! ' w I A.<X).|.W.R.[.",
"].U.U._.U.P.jXJ.1 L u u 5 t 4 = X 0 HXGXHXHXGXGXGXJXHXHXHXHXJXGXCXnXX X o 9 t ! K U T N.,XOX.X[.`.[.",
"P.U._._._._.kXc.2 T r 0 9 w ; X . 9 CXCXSXCXSXAXAXAXAXAXAXAXAXAXKXdX. . X r K p Y 6.P N.vX).|.W.[.[.",
"T.P._._._.T.kXc.X e : & X & X X O   p p i p ^ i p p p p ^ ( ] U ^ i   X ; . & X & 1 X N.zX).|.'.[.'."
};
