/* XPM */
static char *_b8e17eb4c5d403ef6c8e720ea9cafa5A71gUkGfBNFntRJ9[] = {
/* columns rows colors chars-per-pixel */
"50 50 256 2 ",
"   c #161504",
".  c #2F130A",
"X  c #272605",
"o  c #2C3305",
"O  c #343A03",
"+  c #373A16",
"@  c #30240C",
"#  c #322F2F",
"$  c #1E1E28",
"%  c #501311",
"&  c #472C19",
"*  c #6D261C",
"=  c #481A27",
"-  c #59162A",
";  c #661E29",
":  c #493B2B",
">  c #4A2936",
",  c #513134",
"<  c #682829",
"1  c #673736",
"2  c #712E30",
"3  c #601F19",
"4  c #3D4402",
"5  c #374835",
"6  c #494E18",
"7  c #44433A",
"8  c #534B35",
"9  c #6E4534",
"0  c #566634",
"q  c #6D6F2A",
"w  c #383447",
"e  c #34374F",
"r  c #463647",
"t  c #583947",
"y  c #4F334B",
"u  c #6A3E4C",
"i  c #662A4D",
"p  c #3B4B52",
"a  c #374965",
"s  c #574748",
"d  c #555244",
"f  c #484B59",
"g  c #55475A",
"h  c #595755",
"j  c #494D52",
"k  c #68454A",
"l  c #675E4A",
"z  c #644959",
"x  c #695458",
"c  c #775B58",
"v  c #764B4B",
"b  c #586550",
"n  c #626949",
"m  c #6A6A55",
"M  c #7A6656",
"N  c #76795A",
"B  c #68744E",
"V  c #4A576A",
"C  c #56586A",
"Z  c #515470",
"A  c #685766",
"S  c #635775",
"D  c #6E546D",
"F  c #556374",
"G  c #526174",
"H  c #6A636A",
"J  c #756467",
"K  c #687869",
"L  c #6B6673",
"P  c #697879",
"I  c #7C7168",
"U  c #8F3532",
"Y  c #84453D",
"T  c #934337",
"R  c #843845",
"E  c #8A5452",
"W  c #886A57",
"Q  c #836666",
"!  c #8C6D77",
"~  c #877775",
"^  c #997878",
"/  c #916D6E",
"(  c #A7716D",
")  c #AC5F5A",
"_  c #77803F",
"`  c #7C8750",
"'  c #778365",
"]  c #778775",
"[  c #899258",
"{  c #8BA84E",
"}  c #95B54D",
"|  c #8DA957",
" . c #93AD5B",
".. c #95AB5A",
"X. c #94B35C",
"o. c #9CB45B",
"O. c #9CBA5C",
"+. c #98B657",
"@. c #93AB51",
"#. c #A6B54D",
"$. c #A3B55B",
"%. c #A3BB5C",
"&. c #ACBD5B",
"*. c #A6B857",
"=. c #B3BE59",
"-. c #A0AF50",
";. c #86866A",
":. c #879369",
">. c #94956A",
",. c #878C75",
"<. c #939D78",
"1. c #8E8F78",
"2. c #AC8F70",
"3. c #96A966",
"4. c #95B562",
"5. c #9AB563",
"6. c #95BA64",
"7. c #9CBA64",
"8. c #94BC6A",
"9. c #9CBC6A",
"0. c #99B269",
"q. c #98A875",
"w. c #9CB776",
"e. c #8DA96C",
"r. c #A3BD63",
"t. c #AABD63",
"y. c #A3BD6A",
"u. c #AABD6C",
"i. c #A4B666",
"p. c #B3BE66",
"a. c #A8BA76",
"s. c #B6B778",
"d. c #A9A974",
"f. c #C0AF79",
"g. c #9CC45B",
"h. c #ABC25D",
"j. c #A7C35B",
"k. c #B2C35C",
"l. c #BCCB5D",
"z. c #B7C75B",
"x. c #BCCD54",
"c. c #9CC26A",
"v. c #99C268",
"b. c #9BC070",
"n. c #A5C264",
"m. c #ABC363",
"M. c #A5C36C",
"N. c #ACC46B",
"B. c #ABCB68",
"V. c #B3C464",
"C. c #BAC563",
"Z. c #B4CA65",
"A. c #BCCA63",
"S. c #B3C56B",
"D. c #B4CA6C",
"F. c #BBCC6C",
"G. c #BCC66C",
"H. c #BCD26D",
"J. c #B7D268",
"K. c #A4C471",
"L. c #ACC571",
"P. c #AECA75",
"I. c #ACC67B",
"U. c #B1C572",
"Y. c #B4CB73",
"T. c #BACD73",
"R. c #B4CC79",
"E. c #B6C679",
"W. c #BDD274",
"Q. c #BCD37A",
"!. c #B6D477",
"~. c #ADD174",
"^. c #B7E078",
"/. c #C7CD59",
"(. c #CAD25A",
"). c #C3CC65",
"_. c #C2CE6A",
"`. c #CACE64",
"'. c #C4D266",
"]. c #C4D36C",
"[. c #CBD46C",
"{. c #CCD96D",
"}. c #CCD364",
"|. c #D3D968",
" X c #C5CE76",
".X c #C3D474",
"XX c #CAD474",
"oX c #CBDB74",
"OX c #C4D57B",
"+X c #CCD57C",
"@X c #C5D97C",
"#X c #CCDB7B",
"$X c #C4D874",
"%X c #D4DC74",
"&X c #D3DD7B",
"*X c #D9DE78",
"=X c #DCE36A",
"-X c #CFE078",
";X c #DBE47B",
":X c #D7E379",
">X c #E3E66C",
",X c #E3E97C",
"<X c #5A5C81",
"1X c #57628A",
"2X c #727587",
"3X c #8B7486",
"4X c #778987",
"5X c #869385",
"6X c #9B9988",
"7X c #898D8C",
"8X c #A89388",
"9X c #AF8D8E",
"0X c #99A988",
"qX c #9CB387",
"wX c #95A090",
"eX c #A7A985",
"rX c #A8B988",
"tX c #B8BD86",
"yX c #B2B095",
"uX c #9495A8",
"iX c #A394A9",
"pX c #ADB2B0",
"aX c #9AADA9",
"sX c #C99890",
"dX c #CEB0A6",
"fX c #CEA392",
"gX c #B8C885",
"hX c #BBD482",
"jX c #BED982",
"kX c #B3C68B",
"lX c #B5CDAD",
"zX c #C4CC84",
"xX c #CBDC83",
"cX c #C5D884",
"vX c #CBD893",
"bX c #D2D996",
"nX c #CED88E",
"mX c #CDE184",
"MX c #CDE38C",
"NX c #D4E283",
"BX c #D9E683",
"VX c #DAE788",
"CX c #D9E893",
"ZX c #DFF090",
"AX c #E1EC86",
"SX c #E9F187",
"DX c #E3ED94",
"FX c #EFF78E",
"GX c #CBD7AE",
"HX c #DAEBB0",
"JX c #EBC7B9",
"KX c #C7BFCE",
"LX c #DDDBC7",
"PX c #E4EBD8",
"IX c #FAF0F7",
"UX c #EED9E4",
/* pixels */
"D.r.o.+.+.o.t.U.Q.Q.xXmXxXF.A. X#X XV.+.g.g.g.g.v.y.hXbXBXBX=Xx.'.J.A.Z.l.l./.z.=.|.,X,X;X,X;XXX%X*X",
"S.m.n.m.t.r.%.r.W.Y.Q.xXOXF. X#XVX@Xh.} } v.v.v.L.4.i.xXDX;X{.x.Z.z.k.A.Z.).).].).[.%X%X;XBX:X[.|.%X",
"W.W.$X@XW.N.o.+.D.N.T.T. XF.OXNXDXxXZ.} { g.b.8.w.d.q.a.CXDX-XZ.m.j.*.k.A.C./.).`.`.).).%X;X%Xl.).{.",
"-XmXmXmXOXN.o.@.t.t.N.D.S.D. X+XNXxXG.+.{ | 8.w.e.q.q.>.kXCXxXj.Z.m.k.F.].F._.]._.).z.p._.oX_.z.C.F.",
"NX-X#X.XZ.t.$.o.o.r.t.u.N.p.p.S.xXcXY.o.|  .8.w.rXqX1.q.kXkXkXhXN.B.F.W.].F.F._.C.C.=.k.V.A.V.*.h.D.",
"&X#XoXF.V.S.S.B.$.o.o.$.t.t.$.$.+XXXp.o.| e.qX0X0X0X,.] ,.q.q.a.P.Q.MX@X$XH.F.k.k.k.h.&.h.&.*.+.%.m.",
"].oX:X#X.X.XW.T.t.r.o.o.t.S.D.V.NXXXp.o.7.w.w.e.' ] ,.m b B N 0 5.cXZXMX@X@X$XZ.V.k.&.%.$.*.o.+.+.j.",
"l.%XBXBX-X@XF.N.T.t...o.N.OXxX@XAX[.=.t.I.kXq.' ,.' 5X6X;.m B B 0 { P.N.N.W.W.Z.Z.V.&.$.$.O.+.o.%.n.",
"=.C.&XBX#XF.S.W.Q.Y.S.S.T.cXMXZX%Xl.$XQ.vXvX' n ,.8 d 6Xd : ~ q.0 { r.r.r.N.F.Z.Z.J.V.O.o.r.L.M.n.r.",
"=./.oXBX-XF.F.T.OXQ.Y.T. X@XxX#X'.-XF.W.HXkX0 N ;.1.M M m 8 W yX[ i.r.o.r.Y.D.Z.W.H.m.%.r.R.!.P.r.r.",
").).].oXXXF.F.W.W.T.S.S.T.OX#XXXl.-XV.cXMXB X d M 8XfXdXdXW M d.`  .E.N.t.V.Z.D.$XZ.h.r.P.jXhXL.r.u.",
"&XXXA._.F.V.S.F.D.U.S.V.S.F. X].'.z.j.vXe.+ + : . M JXdX2.W v & [ 3.P.U.m.t.m.F.J.m.%.B.R.jXP.5.i.D.",
"VX-X$X$XZ.h.t.S.T.OXT.t.&.=.p.C.z.#.n.vX` + m s 1 1 sX2.Y * 9 9 tXE.a.i.N.S.V.z.Z.h.&.n.N.P.9. .r.B.",
"VXVXVXNX.Xt.%.m..XOXOXG.C.C._.C.} Z.U.kX>.8 x c , v ) 2 % * 2 9 s.hXE.N.S.Z.h.h.h.j.$.O.o.o.X.X.7.N.",
"-XBXZXVXF.-.$.S.T.#XxX#X+X&XXX).*.T.E.kX0X7 , c , 2 ) T * * 3 2.[ s.zXQ.S.t.&.j.&.&.%.j.O.5.4.5.O.g.",
"@XNXVXmX&.@.*.W.OX-XBXBXAXBX[.#.k.m.gXGX6X# $ k 1 v 3X) 3 2 U f.>.s.R.p.p.k.k.*.&.k.Z.H.F.D.n.r.X.X.",
"xXOXOXxXW.%.%.m.J.-X#X$XoX_.z.l.z.Z.mXkXL f h z k 1 iX3X2 ; < dX0 [ zXG.[.#.z._._. X%X[.].oX$XF.y.o.",
"Y.Q.MXmXOXD.m.h.B.W.$X$X.X_.A.J.J.x. XeXS S C y u > 2XS - - = I yX8 s.&X`.l.oX=.XX&X*X%X=X;X;X&X@XQ.",
"$.T.mXMX@XY.t.o.D.W..XW.$XF.F.].J.j.u.1.g <XZ w z y S C = = y H LX@ zXNXl.l.{.C.XX+X%XoX:X,XAXNX@XT.",
"-.t..XcXOXY.r.o.n.!.T.D.D.Z.V.F.j.v.a.,.e <XV r z i S S > = s d yX+ bX X}./.A.].C.G._.}.%X;X;X#XD.N.",
"=.h._.NXxXY.i.o.o.a.u.y.t.$.*.h.j.M.qX] p 1Xa e D y g 2Xt = g # 1.6 vX X;X'.).C.&.p.C.).[.[.[.F.V.S.",
"'.A.oXVXVXE. .3...i.u.u.t.$.*.%.v.v.w.b a 1Xa $ L t r g > > C : 6X+ zXNX{.z.'.&.&.p.z.C.C.z.V.p.V.G.",
"{.-XBXVX+Xi.3. .3.a.R.R.Y.t.$.t.r.w.qXp a 1Xe w D z r = $ > x 7 6X+ nXDXA.k.A.=.$.&.=.z.k.k.p.C.T..X",
"{.:XAX$Xt...| | 5.gXgXhXY.t.$.%.r.kXlXp G V e f s Q Q s = , 8 # 1.+ nXBX'.{.C.V.i.p.p.p.k.z.F.@XT..X",
"SX:XoXV.$. .....a.gXhXhXcXT.p.$. .rX0Xp F Z f y > ^ ^ = 9 s 8 X ,.o gXxX_.).&.p.t.u.F.H.Z.m.D.cXOX+X",
"$X-XW.Z.m.r.5.3...I.MXCXxX XT.p.i.a.] p Z V w r s E 1 % ! J : @ I 6 ` @XA.l.&.S.u.U.T.W.].F.OX@XW.W.",
"J.$X@XW.Y.N.i.o.{ u.MXCXCXmX@X Xs.d.b f G C r A c 9 3 2 ^ ~ : @ I N O +Xk.z.m.S.U.T.W.W.$XQ.Q.E.Y.T.",
"J.Q.Q.W.T.Y.u.o.o.&.Y.NXZXDXNX+XzX>.b C F C y J ^ E 2 2 Q ~ s   N eXX  Xk.A.V.S.U.E.W.Y.H.!.u.5.t.n.",
"i.i.r.y.Y.Q.Y.m.J.j.h.F.BXSXNX Xf.;.j G G f # z 9X( U ; ! 3X,   m eXo U.F.].p.t.u.U.Y.S.n.m.r...7.r.",
"0.3.4.5.n.W.!.J.J.z.h.A.`.XXXX+Xs.N V G F f > g ~ 9XU U 3XL $ @ d :.O S.].oXt.$.i.u.L.N.n.r.5.4.X.6.",
"w.0.0.4.O.B.J.J.l.z.=.l.).`.). Xa.K p a V a r D J ^ E ; Q f $ @ l ;.o T.$X].S.$.u.a.N.N.n.7.0.7.6.6.",
"e.0.4. .+.v.J.W.J.j.&.C. X XC.p.E.b # $ w # r A A k R - t g x # ;.>.o &X].J.T.S.R.L.n.N.n.$.5.7.c.c.",
"4.6.6.4.| 6.P.Y.M.n.n.n.n.n.n.n.a.:.0 : % % E 3Xz z i - g D / 9 8XX q %X>X|.NX+Xu.u.n.n.n.n.n.u.9.8.",
"6.6.6.X.X.4.8.c.7.7.X.X.+.O.v.7.9.a.3.2.U U ( ^ D D i i ! 9X) % X q +X,X|.,XFX XT.P.B.n.n.%.u.P.K.K.",
"X.6.6.O.6.5.4. .X. .| { { X.+.O.O.L.Q.f.U ) fX9XJ A > 2 ^ yX( . W bXDXSXFX,X[. XE.R.Y.~.m.%.u.Y.M.c.",
"+.+.7.v.M.M.5. .4. . .X.X.+.X.n.$.i.E.2.* ) dX9Xx z ; ; W 2.2.9 @ d.+X|.=X>X*X).S.U.!.!.B.m.S.R.M.v.",
"X.X.7.M.R.R.M.5.4.4.5.9.7.O.4.r.i.E.kX;.; ( 9XJ x k ; ; k Q / M @ -.NX*X|.=X*X*.%.N.W.^.H.B.Y.!.~.M.",
"} +.r.N.Q.hXP.9.5.5.7.M.M.X.4.7.s.gXrXm u 3X2Xg A k ; R k c c x W 6 -.`.|.(.[.`.%.n.Z.J.W.J.Y.W.Z.Z.",
"%.r.m.Y.Q.hXP.y.5.4.5.y.9.o.o.y.a.gX0X, D <XS Z A u - 2 k x z s >.4 XX`.(.(.(.`.G.m.j.B.B.J.Y.Y.G.G.",
"N.S.Y.Y.Q.hXP.9.4. .4.y.7. .o.y.u.gXqX# D D V G C u % < 1 x h d q.O BX`./.>X(.*XXXS.+.j.B.B.Y.T.OXXX",
"xXQ.!.Q.jXjX~.K.5.5.7.y.y.y.y.n.H.U.[ 0 j j a b l & . 3 9 8 b b d.& +X|.|.>X`.BX@XF.*.} j.H.!.N.T.OX",
"xXQ.Y.R.hX!.I.K.K.M.K.P.R.L.U.T.*.D.gX:.K j # # : W E * & 7 h 0Xo   DX|./.>X>X*X.XD.+.+.B.H.!.N.D.T.",
"cXR.N.L.K.K.b.b.K.M.L.~.Y.W.T.W.m.O.3.:.0X7X4XP 7XdXUXsXM ~ aX5   CX+X>X,X|.>X|.XXD.%.j.B.W.!.K.M.~.",
"P.M.7.4.9.8.8.v.v.9.M.P.Q.Q.OXxXW.X.3.<.GXpXaX4XpX$ > IX9X7XpX# ] vXDX>X>X>XSX|..XG.h.j.B.~.L.9.4.v.",
"9.5.4.4.8.e.6.8.v.c.M.!.Q.OX@XmX!.K.kXrXGXqX4X4X2XuXZ iX3XKXP K yX6 OX:X>X|.>X|. XS.n.j.B.n.9.7.7.v.",
"9.9.4.6.8.8.v.v.c.c.K.Y.W.W..X$X^.~.gXa.rX] wX4X4XuXUXiXf iXP P ' ` 4 [.,X/.`.*XG.m.%.j.j.7.7.9.L.Y.",
"kX8.8.8.b.8.v.v.c.v.c.B.D.D.F.D.^.!.T.p.kX0X] 4X4XG IXpXH L K b N [ O `./.|.|.[.G.V.$.%.+.+.0.i.cXxX",
"~.b.8.8.8.v.v.v.v.7.r.m.D.Z.F.D.~.B.t.i.p.a.e.0XaXpXPXPXLXPXGXHXq.d.t.[././.|.#._.V.r.O.+. .4.5. X+X",
"hXK.X.4.M.I.~.v.P.B.7.n.Y.D.r.m.n.n.n.L.Y.y.0.a.a.a.gXvXnXnXDXCXU.S.A.)././.l.z.Z.F.t.n.7.{ 7.Y.T.&X",
"Q.P.O.7.N.!.Y.N.Q.Y.n.N.Y.N.7.M.r.n.n.K.P.y.5.y.S.S.OX#X[.*X,X:XC.Z.A.A.l.l.x.z.Z.W.m.N.y. .7.Y.F.+X"
};
