/* XPM */
static char *_8d0fe5689a34f21d67c6fadb88fcdcbE9rryZVaudqfZOrb[] = {
/* columns rows colors chars-per-pixel */
"50 50 85 1 ",
"  c #050505",
". c #080707",
"X c #080807",
"o c #0C0C0B",
"O c #100F0E",
"+ c #11100F",
"@ c #141412",
"# c #181715",
"$ c #191816",
"% c #1D1C1A",
"& c #201F1C",
"* c #22211E",
"= c #262421",
"- c #282623",
"; c #2B2926",
": c #2E2C29",
"> c #302E2B",
", c #34322E",
"< c #373530",
"1 c #393632",
"2 c #3C3A35",
"3 c #3F3D38",
"4 c #413E3A",
"5 c #45423D",
"6 c #48453F",
"7 c #474540",
"8 c #494641",
"9 c #4D4A44",
"0 c #504D47",
"q c #514E48",
"w c #524F48",
"e c #534F49",
"r c #535049",
"t c #54514B",
"y c #55524B",
"u c #56524C",
"i c #57534D",
"p c #57544D",
"a c #57554E",
"s c #58544E",
"d c #5A564F",
"f c #5A5650",
"g c #5B5750",
"h c #5C5951",
"j c #5C5952",
"k c #5D5A52",
"l c #5D5A53",
"z c #5F5B53",
"x c #5F5C54",
"c c #5F5C55",
"v c #605C55",
"b c #615D55",
"n c #615D56",
"m c #635F57",
"M c #635F58",
"N c #636058",
"B c #646058",
"V c #646159",
"C c #65625A",
"Z c #66625A",
"A c #66625B",
"S c #67635B",
"D c #67645C",
"F c #68645C",
"G c #68655D",
"H c #69655D",
"J c #6C675F",
"K c #6C685F",
"L c #6C6860",
"P c #6C6960",
"I c #6E6A61",
"U c #6F6A62",
"Y c #6F6B62",
"T c #716D65",
"R c #726E65",
"E c #736F66",
"W c #737066",
"Q c #747067",
"! c #767269",
"~ c #78736A",
"^ c #78746A",
"/ c #79756B",
"( c #7D786E",
") c #7E7A70",
"_ c #848075",
/* pixels */
":1424385555<=<331,13<,<1>;14344955541=3951,,1<:,,;",
"sznHPPDnALLj:gNcDHADMsqq9yzAKSSAPPHPA<Y()TPKHHHHAN",
"yuugzsxszcs9=9pyznjpur090szvxvssppzMs;A/YHAxANDKHH",
"zuzz99y9qyg5%599989909999ssu099999qz5*9HDr9ppjxczr",
"pzzp99990ru5%35555799999999999969999<*5zN099jppp99",
"9r099999098<%34555599979955559869987,%8p9959999999",
"09999999855-$24445789986585158899987;%875311579999",
"uy0qrr99533=$,2554777854465555588999>%5511<<155rrr",
"y9899rq9951*$,154665553555666345348q<=94211,255997",
"85448888881=@,154512<35855996531<,36:%85,,,,288859",
"31>,<<<2421=@;,:,<,,,15544111,;;;:;>-$<1>::>252555",
"*##%####%%=$o*;;=======****%*$@@@@$%$o=::-::>:;-==",
"oX XXX  X    o@+XooXooo@..XXoX   X    #@+O+OoOOo@X",
"1654825351,:,<<334580pq5@:8096133421,48699999q8qu%",
"rHPDHAAAnAAnNHAANAcP^(Hr&5S(_~HKKPPTK!/WWPWWQ!!TH=",
"8nnzgzguupyy9ssxprycnAz8#1zJKnvnxzvszMBAAPPHHTPMr*",
"5sy09899qr9958rw9990zp93@;9quqg988855899qpgxsggq4#",
"1yq9988599r9759955799992+;779qg95884345789quq9993@",
">99999985579979998999991@=4448q988554487889999995#",
",6899999799999999999998<+-44435885533588999999991#",
":35759889998599998999981+=23344333333588889899993#",
",5334555355559567899985<o=11344311211355555579993#",
"<3332111111211<31575331-o&<<<143111<<<1333244454,o",
"*>,,>:::;:::;;::::>:;;;=O$;;;;>;;;;;;=;:>:;>>><,=@",
"O@@+@+@oo@$$+Xo@@+o#@@@$oO@Oo@@@oo@#@oXoo@+O@@+@#o",
"=<<,<<3<1<,:%:,,:;:,:-;:-=,<,:;2<11>=#;:<>-:,;-;;=",
"xHLDHKYTWW/K<sAAANgzzpsvnLTTTAHPLTTLu:pPETTKPPPPKD",
"xpjsgjxAHSKA,yzjnxszsxcnMAAMMvnxxMnn9-uPPTPPPWTTRY",
"j9r00pjpsrc0:nAjsz99qssgxvnnzxuuggqr3=qgvzxzxcANxx",
"99999pq965u5;nA999999qsugxxMxurpgr89<%8qqsgjlxgppp",
"99999795455,=sj0885858qsuqqqu9999888<%9989999q9999",
"97597441322;%9q08453338q554455588423;#445448985977",
"85555311111=#145642221442421253552,,*$255524444446",
"5545433111<=@,,,2<1,1,,>>,>,1534221,*#554323444436",
"3121121<,>:%+:>,:::>>:;--;-:,5555<,<*#<55535152435",
">>>,>>>;;;;%+*-=--=-----*;*--:,,,-::*#154,,<<<,,11",
"=%%%%$%#@$$+o&*******&%%%$####+#++@$#o-:::;;-*-**=",
"ooXoX  Xo X  +OOoXXXooooXXX  X  Xo X  $+@+o+o+++@o",
"3r089588941,554455489887$:55251555,,,599w9960yww0%",
"9AAPPTPPEKANAnAJnnAHADMg%5nnvBnBgxvBHKW^WKKRRRWRS=",
"4uxvgxnNmnvvuyyvrjq9qqq6%,r9wjzjjzgxxnNNvxnSxxggu%",
"190090svvsds099wpxq99904#;57pjjzjxugspruvuw999993#",
",999999uisss999yuq9990q4@=35rpzpuusszu99099999994@",
">99999999ysw9999999999r7@=555990r9usp656999999994#",
",699699999999999999999u5@;555999969r6454699999992#",
"*,12554566969699889899r1@=33455595655555699699993#",
"*:,,,,,,114655655857999<O;42455433545555569996693@",
"*:::>::::,,,,,<,1111311=X*<:<11,<<311,,,,1354135:X",
"&;;;::;;;:,:;:;;:::;;-:-o$-;:::::;::,::>;;>::;::=@",
"+@@@#@#@o@%#@+++@@o@@@#$o+@#@#@#@o@$#@O@O@@@@#@##o"
};
